<svg width="40" height="40" viewBox="0 0 40 40" fill="none" xmlns="http://www.w3.org/2000/svg">
<path d="M20.0004 16.0526C17.231 16.0526 14.9785 13.7994 14.9785 11.0301C14.9785 8.26069 17.231 6.00757 20.0004 6.00757C22.7698 6.00757 25.0223 8.26069 25.0223 11.0301C25.0223 13.7994 22.7698 16.0526 20.0004 16.0526ZM20.0004 7.25819C17.9204 7.25819 16.2285 8.95069 16.2285 11.0307C16.2285 13.1107 17.9204 14.8032 20.0004 14.8032C22.0804 14.8032 23.7723 13.1107 23.7723 11.0307C23.7723 8.95069 22.0804 7.25819 20.0004 7.25819Z" fill="#16A831"/>
<path d="M20 4.80125C19.6544 4.80125 19.375 4.52125 19.375 4.17625V3.125C19.375 2.78 19.6544 2.5 20 2.5C20.3456 2.5 20.625 2.78 20.625 3.125V4.17625C20.625 4.52125 20.3456 4.80125 20 4.80125Z" fill="#16A831"/>
<path d="M14.894 6.91629C14.734 6.91629 14.574 6.85504 14.4521 6.73316L13.7096 5.99004C13.4653 5.74566 13.4653 5.35004 13.7096 5.10566C13.954 4.86191 14.349 4.86191 14.5934 5.10566L15.3359 5.84879C15.5803 6.09316 15.5803 6.48879 15.3359 6.73316C15.214 6.85504 15.054 6.91566 14.894 6.91566V6.91629Z" fill="#16A831"/>
<path d="M12.7788 12.0219H11.7275C11.3819 12.0219 11.1025 11.7419 11.1025 11.3969C11.1025 11.0519 11.3819 10.7719 11.7275 10.7719H12.7788C13.1244 10.7719 13.4038 11.0519 13.4038 11.3969C13.4038 11.7419 13.1244 12.0219 12.7788 12.0219Z" fill="#16A831"/>
<path d="M25.1066 6.91626C24.9466 6.91626 24.7866 6.85501 24.6647 6.73376C24.4204 6.48939 24.4204 6.09439 24.6647 5.84939L25.4072 5.10626C25.6516 4.86189 26.0466 4.86251 26.291 5.10626C26.5354 5.35064 26.5354 5.74564 26.291 5.99064L25.5485 6.73376C25.4266 6.85564 25.2666 6.91689 25.1066 6.91689V6.91626Z" fill="#16A831"/>
<path d="M28.272 12.0219H27.2207C26.8751 12.0219 26.5957 11.7419 26.5957 11.3969C26.5957 11.0519 26.8751 10.7719 27.2207 10.7719H28.272C28.6176 10.7719 28.897 11.0519 28.897 11.3969C28.897 11.7419 28.6176 12.0219 28.272 12.0219Z" fill="#16A831"/>
<path d="M21.8639 19.6756C21.5182 19.6756 21.2389 19.3956 21.2389 19.0506C21.2389 18.7056 21.5182 18.4256 21.8639 18.4256C21.9682 18.4256 22.0532 18.3406 22.0532 18.2369C22.0532 18.1331 21.9682 18.0475 21.8639 18.0475H18.1357C17.7901 18.0475 17.5107 17.7675 17.5107 17.4225C17.5107 17.0775 17.7901 16.7975 18.1357 16.7975H21.8639C22.6576 16.7975 23.3032 17.4431 23.3032 18.2369C23.3032 19.0306 22.6576 19.6756 21.8639 19.6756Z" fill="#16A831"/>
<path d="M20.0004 21.3043H18.1366C17.3429 21.3043 16.6973 20.6587 16.6973 19.8649C16.6973 19.0712 17.3429 18.4255 18.1366 18.4255H21.8648C22.2104 18.4255 22.4898 18.7055 22.4898 19.0505C22.4898 19.3955 22.2104 19.6755 21.8648 19.6755H18.1366C18.0323 19.6755 17.9473 19.7605 17.9473 19.8649C17.9473 19.9693 18.0323 20.0543 18.1366 20.0543H20.0004C20.346 20.0543 20.6254 20.3343 20.6254 20.6793C20.6254 21.0243 20.346 21.3043 20.0004 21.3043Z" fill="#16A831"/>
<path d="M36.8822 37.425H26.6828C26.3372 37.425 26.0578 37.145 26.0578 36.8C26.0578 36.455 26.3372 36.175 26.6828 36.175H36.0528L35.3628 33.7725C35.1016 32.8569 34.4184 32.0969 33.5316 31.7344C33.5066 31.7269 33.4778 31.7175 33.4659 31.7131C32.9284 31.5019 32.4041 31.3487 31.8647 31.245C30.7566 31.0344 29.6322 31.0344 28.5247 31.245C27.9922 31.3481 27.4672 31.5012 26.9216 31.7137C26.9122 31.7169 26.8659 31.7331 26.8566 31.7362C26.3784 31.9256 25.9309 32.2581 25.5922 32.6875C25.3784 32.9587 24.9853 33.0056 24.7141 32.7906C24.4434 32.5769 24.3972 32.1837 24.6109 31.9131C25.0872 31.3106 25.7159 30.8437 26.4291 30.5625C26.4391 30.5587 26.4859 30.5425 26.4959 30.5387C27.0847 30.3087 27.6803 30.135 28.2884 30.0175C29.5541 29.7762 30.8359 29.7769 32.0997 30.0175C32.7078 30.1344 33.3216 30.3131 33.9241 30.55C35.2266 31.065 36.1966 32.1362 36.5653 33.4287L37.4834 36.6275C37.5378 36.8162 37.4997 37.0194 37.3822 37.1756C37.2641 37.3325 37.0797 37.4244 36.8828 37.4244L36.8822 37.425Z" fill="#16A831"/>
<path d="M30.7512 33.2456H29.643C29.4268 33.2456 29.2262 33.1338 29.1118 32.95L27.878 30.9613C27.6962 30.6675 27.7868 30.2825 28.0793 30.1006C28.3737 29.9181 28.758 30.0088 28.9399 30.3019L29.9905 31.995H30.403L31.4543 30.3019C31.6362 30.0088 32.0212 29.9181 32.3149 30.1006C32.608 30.2825 32.698 30.6681 32.5162 30.9613L31.2818 32.95C31.1674 33.1338 30.9674 33.2456 30.7512 33.2456Z" fill="#16A831"/>
<path d="M30.5725 37.4219C30.4625 37.4219 30.3513 37.3932 30.2507 37.3326C30.2319 37.3213 30.2138 37.3088 30.1969 37.2957C30.1794 37.3088 30.1613 37.3213 30.1425 37.3326C29.8463 37.5101 29.4632 37.4144 29.2844 37.1188L28.2007 35.3163C28.1019 35.1519 28.0838 34.9507 28.1525 34.7713L29.0582 32.3994C29.1507 32.1576 29.3832 31.9976 29.6425 31.9976H30.7507C31.01 31.9976 31.2419 32.1576 31.335 32.3994L32.2413 34.7713C32.3094 34.9507 32.2919 35.1519 32.1932 35.3163L31.1094 37.1188C30.9919 37.3138 30.7844 37.4219 30.5725 37.4219ZM29.4288 34.9332L30.1969 36.2101L30.9644 34.9332L30.3207 33.2476H30.0732L29.4288 34.9332Z" fill="#16A831"/>
<path d="M30.1961 29.4201C28.0736 29.4201 26.3467 27.6932 26.3467 25.5707C26.3467 23.4482 28.0736 21.7213 30.1961 21.7213C32.3186 21.7213 34.0454 23.4482 34.0454 25.5707C34.0454 27.6932 32.3186 29.4201 30.1961 29.4201ZM30.1961 22.9713C28.7629 22.9713 27.5967 24.1376 27.5967 25.5707C27.5967 27.0038 28.7629 28.1701 30.1961 28.1701C31.6292 28.1701 32.7954 27.0038 32.7954 25.5707C32.7954 24.1376 31.6292 22.9713 30.1961 22.9713Z" fill="#16A831"/>
<path d="M19.6257 37.4219H13.3175C13.1219 37.4219 12.9369 37.3301 12.8182 37.1732C12.7007 37.0169 12.6625 36.8138 12.7163 36.6251L13.6313 33.4294C14.0013 32.1332 14.9725 31.0619 16.2307 30.5651C16.8663 30.3163 17.4782 30.1382 18.0932 30.0188C18.4325 29.9538 18.76 30.1744 18.8257 30.5132C18.8913 30.8519 18.67 31.1801 18.3313 31.2457C17.79 31.3507 17.2507 31.5076 16.7288 31.7119C15.7913 32.0826 15.0969 32.8476 14.8332 33.7726L14.1463 36.1719H19.6257C19.9713 36.1719 20.2507 36.4519 20.2507 36.7969C20.2507 37.1419 19.9713 37.4219 19.6257 37.4219Z" fill="#16A831"/>
<path d="M26.6831 37.4219H20.375C20.0294 37.4219 19.75 37.1419 19.75 36.7969C19.75 36.4519 20.0294 36.1719 20.375 36.1719H25.8544L25.1675 33.7732C24.9037 32.8476 24.2094 32.0826 23.3094 31.7269C22.7494 31.5076 22.21 31.3507 21.6687 31.2457C21.33 31.1801 21.1087 30.8519 21.1744 30.5132C21.24 30.1744 21.5706 29.9538 21.9069 30.0188C22.5219 30.1382 23.1344 30.3163 23.7269 30.5476C25.0275 31.0626 25.9994 32.1338 26.37 33.4301L27.2844 36.6257C27.3381 36.8144 27.3 37.0169 27.1825 37.1738C27.0644 37.3301 26.8794 37.4219 26.6831 37.4219Z" fill="#16A831"/>
<path d="M19.9988 29.4201C17.8763 29.4201 16.1494 27.6932 16.1494 25.5707C16.1494 23.4482 17.8763 21.7213 19.9988 21.7213C22.1213 21.7213 23.8488 23.4482 23.8488 25.5707C23.8488 27.6932 22.1213 29.4201 19.9988 29.4201ZM19.9988 22.9713C18.5657 22.9713 17.3994 24.1376 17.3994 25.5707C17.3994 27.0038 18.5657 28.1701 19.9988 28.1701C21.4319 28.1701 22.5988 27.0038 22.5988 25.5707C22.5988 24.1376 21.4325 22.9713 19.9988 22.9713Z" fill="#16A831"/>
<path d="M13.3191 37.425H3.11908C2.92283 37.425 2.73846 37.3331 2.61971 37.1762C2.50221 37.02 2.46408 36.8162 2.51846 36.6281L3.43721 33.4281C3.80533 32.1362 4.77533 31.065 6.03096 30.5637C6.05033 30.5556 6.07033 30.5487 6.09158 30.5431C6.67971 30.3131 7.29408 30.1343 7.90158 30.0181C9.16471 29.7768 10.4466 29.7768 11.7116 30.0181C12.3222 30.1362 12.9172 30.31 13.5335 30.55C14.2822 30.8431 14.9116 31.3087 15.3947 31.9106C15.611 32.18 15.5672 32.5731 15.2985 32.7893C15.0291 33.0062 14.6347 32.9618 14.4197 32.6925C14.0728 32.2606 13.6228 31.9262 13.116 31.7268C12.5353 31.5031 12.0097 31.3493 11.476 31.2462C10.3697 31.0356 9.24596 31.0356 8.13721 31.2462C7.59846 31.3493 7.07408 31.5025 6.53596 31.7143C6.52346 31.7187 6.49533 31.7281 6.47033 31.7356C5.58346 32.0981 4.90033 32.8575 4.63971 33.7725L3.94971 36.1762H13.3197C13.6653 36.1762 13.9447 36.4562 13.9447 36.8012C13.9447 37.1462 13.6653 37.4262 13.3197 37.4262L13.3191 37.425Z" fill="#16A831"/>
<path d="M10.3592 33.2457H9.25108C9.03483 33.2457 8.83421 33.1338 8.71983 32.95L7.48545 30.9613C7.30358 30.6682 7.39421 30.2825 7.68671 30.1007C7.98046 29.9182 8.36545 30.0088 8.54733 30.3019L9.59858 31.995H10.0111L11.0617 30.3019C11.2436 30.0088 11.6286 29.9175 11.9223 30.1007C12.2155 30.2825 12.3055 30.6675 12.1236 30.9613L10.8898 32.95C10.7755 33.1338 10.5755 33.2457 10.3592 33.2457Z" fill="#16A831"/>
<path d="M10.1809 37.4219C10.0709 37.4219 9.95968 37.3932 9.85905 37.3326C9.8403 37.3213 9.82218 37.3088 9.80468 37.2957C9.7878 37.3088 9.76968 37.3213 9.75093 37.3326C9.45468 37.5101 9.07155 37.4144 8.8928 37.1188L7.80905 35.3163C7.7103 35.1519 7.69218 34.9507 7.76093 34.7713L8.66718 32.3994C8.75968 32.1576 8.99218 31.9976 9.25155 31.9976H10.3597C10.6191 31.9976 10.8509 32.1576 10.9441 32.3994L11.8497 34.7713C11.9178 34.9507 11.9003 35.1519 11.8016 35.3163L10.7178 37.1188C10.6003 37.3138 10.3928 37.4219 10.1809 37.4219ZM9.0378 34.9332L9.8053 36.2101L10.5734 34.9332L9.92968 33.2476H9.68218L9.03843 34.9332H9.0378Z" fill="#16A831"/>
<path d="M9.80445 29.4201C7.68195 29.4201 5.95508 27.6932 5.95508 25.5707C5.95508 23.4482 7.68195 21.7213 9.80445 21.7213C11.927 21.7213 13.6538 23.4482 13.6538 25.5707C13.6538 27.6932 11.927 29.4201 9.80445 29.4201ZM9.80445 22.9713C8.37133 22.9713 7.20508 24.1376 7.20508 25.5707C7.20508 27.0038 8.37133 28.1701 9.80445 28.1701C11.2376 28.1701 12.4038 27.0038 12.4038 25.5707C12.4038 24.1376 11.2376 22.9713 9.80445 22.9713Z" fill="#16A831"/>
<path d="M7.35938 15.8331C7.01375 15.8331 6.73438 15.5531 6.73438 15.2081V14.25C6.73438 13.905 7.01375 13.625 7.35938 13.625C7.705 13.625 7.98438 13.905 7.98438 14.25V15.2081C7.98438 15.5531 7.705 15.8331 7.35938 15.8331Z" fill="#16A831"/>
<path d="M7.35938 19.4257C7.01375 19.4257 6.73438 19.1457 6.73438 18.8007V17.8425C6.73438 17.4975 7.01375 17.2175 7.35938 17.2175C7.705 17.2175 7.98438 17.4975 7.98438 17.8425V18.8007C7.98438 19.1457 7.705 19.4257 7.35938 19.4257Z" fill="#16A831"/>
<path d="M9.71727 17.0669H8.75977C8.41414 17.0669 8.13477 16.7869 8.13477 16.4419C8.13477 16.0969 8.41414 15.8169 8.75977 15.8169H9.71727C10.0629 15.8169 10.3423 16.0969 10.3423 16.4419C10.3423 16.7869 10.0629 17.0669 9.71727 17.0669Z" fill="#16A831"/>
<path d="M5.9591 17.1063H5.00098C4.65535 17.1063 4.37598 16.8263 4.37598 16.4813C4.37598 16.1363 4.65535 15.8563 5.00098 15.8563H5.9591C6.30473 15.8563 6.5841 16.1363 6.5841 16.4813C6.5841 16.8263 6.30473 17.1063 5.9591 17.1063Z" fill="#16A831"/>
<path d="M32.6426 15.8331C32.297 15.8331 32.0176 15.5531 32.0176 15.2081V14.25C32.0176 13.905 32.297 13.625 32.6426 13.625C32.9882 13.625 33.2676 13.905 33.2676 14.25V15.2081C33.2676 15.5531 32.9882 15.8331 32.6426 15.8331Z" fill="#16A831"/>
<path d="M32.6426 19.4257C32.297 19.4257 32.0176 19.1457 32.0176 18.8007V17.8425C32.0176 17.4975 32.297 17.2175 32.6426 17.2175C32.9882 17.2175 33.2676 17.4975 33.2676 17.8425V18.8007C33.2676 19.1457 32.9882 19.4257 32.6426 19.4257Z" fill="#16A831"/>
<path d="M35.0001 17.0669H34.042C33.6964 17.0669 33.417 16.7869 33.417 16.4419C33.417 16.0969 33.6964 15.8169 34.042 15.8169H35.0001C35.3457 15.8169 35.6251 16.0969 35.6251 16.4419C35.6251 16.7869 35.3457 17.0669 35.0001 17.0669Z" fill="#16A831"/>
<path d="M31.2413 17.1063H30.2832C29.9376 17.1063 29.6582 16.8263 29.6582 16.4813C29.6582 16.1363 29.9376 15.8563 30.2832 15.8563H31.2413C31.587 15.8563 31.8663 16.1363 31.8663 16.4813C31.8663 16.8263 31.587 17.1063 31.2413 17.1063Z" fill="#16A831"/>
<path d="M20.3749 37.425H19.6255C19.4062 37.425 19.203 37.31 19.0905 37.1225L18.003 35.3163C17.9037 35.1513 17.8855 34.95 17.9549 34.77L18.7518 32.6869L17.6818 30.96C17.573 30.785 17.558 30.5681 17.6405 30.3794C17.7237 30.1913 17.8937 30.055 18.0962 30.0169C19.3593 29.7763 20.6412 29.7763 21.9049 30.0169C22.1074 30.0556 22.278 30.1913 22.3605 30.3794C22.443 30.5681 22.4274 30.785 22.3193 30.96L21.2493 32.6869L22.0462 34.77C22.1149 34.95 22.0974 35.1513 21.998 35.3163L20.9105 37.1225C20.7974 37.31 20.5943 37.425 20.3755 37.425H20.3749ZM19.9787 36.175H20.0212L20.7693 34.9325L19.9999 32.9206L19.2305 34.9325L19.9787 36.175ZM19.2499 31.1188L19.9749 32.29C19.9843 32.3044 19.9918 32.3188 19.9999 32.3338C20.008 32.3188 20.0155 32.3044 20.0249 32.29L20.7499 31.1188C20.2505 31.0769 19.7487 31.0769 19.2499 31.1188Z" fill="#16A831"/>
</svg>
