<svg width="40" height="40" viewBox="0 0 40 40" fill="none" xmlns="http://www.w3.org/2000/svg">
<path d="M6.875 20C6.875 20.6181 7.05828 21.2223 7.40166 21.7362C7.74504 22.2501 8.2331 22.6506 8.80411 22.8871C9.37513 23.1236 10.0035 23.1855 10.6097 23.065C11.2158 22.9444 11.7727 22.6467 12.2097 22.2097C12.6467 21.7727 12.9444 21.2158 13.065 20.6097C13.1855 20.0035 13.1236 19.3751 12.8871 18.8041C12.6506 18.2331 12.2501 17.745 11.7362 17.4017C11.2223 17.0583 10.6181 16.875 10 16.875C9.1712 16.875 8.37634 17.2042 7.79029 17.7903C7.20424 18.3763 6.875 19.1712 6.875 20ZM11.875 20C11.875 20.3708 11.765 20.7334 11.559 21.0417C11.353 21.35 11.0601 21.5904 10.7175 21.7323C10.3749 21.8742 9.99792 21.9113 9.63421 21.839C9.27049 21.7666 8.9364 21.588 8.67417 21.3258C8.41195 21.0636 8.23337 20.7295 8.16103 20.3658C8.08868 20.0021 8.12581 19.6251 8.26773 19.2825C8.40964 18.9399 8.64996 18.647 8.95831 18.441C9.26665 18.235 9.62916 18.125 10 18.125C10.4973 18.125 10.9742 18.3225 11.3258 18.6742C11.6775 19.0258 11.875 19.5027 11.875 20Z" fill="#16A831"/>
<path d="M35.625 29.375H33.125C32.798 29.3764 32.4732 29.4291 32.1625 29.5312L28.85 25H31.3125C31.2721 25.2059 31.2512 25.4152 31.25 25.625C31.2364 26.3693 31.489 27.094 31.9623 27.6687C32.4356 28.2433 33.0985 28.6301 33.8316 28.7594C34.5647 28.8888 35.3199 28.7521 35.9613 28.3741C36.6026 27.9961 37.0879 27.4016 37.3298 26.6975C37.5718 25.9935 37.5544 25.2262 37.2809 24.5338C37.0074 23.8415 36.4957 23.2695 35.838 22.9208C35.1802 22.5722 34.4196 22.4698 33.6931 22.6321C32.9665 22.7945 32.3218 23.2108 31.875 23.8063C31.6691 23.7666 31.4597 23.7477 31.25 23.75H28.75C28.5009 23.7517 28.253 23.7853 28.0125 23.85L26.7625 22.1313C26.7037 22.0508 26.6265 21.9855 26.5373 21.9409C26.4482 21.8964 26.3497 21.8738 26.25 21.875H20.625V20.625C20.9998 20.6022 21.3732 20.5605 21.7438 20.5L21.525 19.25C20.5201 19.4251 19.4924 19.4251 18.4875 19.25L18.275 20.5C18.6393 20.5605 19.0064 20.6022 19.375 20.625V21.875H13.75C13.6514 21.8747 13.5541 21.8978 13.4661 21.9424C13.3781 21.9869 13.3019 22.0516 13.2438 22.1313L11.9938 23.85C11.7512 23.7847 11.5012 23.7511 11.25 23.75H8.75C8.55074 23.7498 8.35192 23.7686 8.15625 23.8063C7.71941 23.2029 7.08142 22.7754 6.35727 22.6009C5.63311 22.4263 4.87043 22.5162 4.20668 22.8543C3.54293 23.1924 3.02178 23.7565 2.73715 24.4448C2.45253 25.1332 2.42316 25.9006 2.65433 26.6087C2.8855 27.3168 3.36201 27.9191 3.99797 28.3069C4.63393 28.6947 5.38752 28.8426 6.12289 28.724C6.85827 28.6053 7.52707 28.2278 8.00875 27.6597C8.49043 27.0915 8.75331 26.3699 8.75 25.625C8.74879 25.4152 8.72786 25.2059 8.6875 25H11.15L7.8375 29.5312C7.52682 29.4291 7.20203 29.3764 6.875 29.375H4.375C3.5462 29.375 2.75134 29.7042 2.16529 30.2903C1.57924 30.8763 1.25 31.6712 1.25 32.5V36.25C1.25 36.4158 1.31585 36.5747 1.43306 36.6919C1.55027 36.8092 1.70924 36.875 1.875 36.875H2.5L1.36875 38.3813C1.3061 38.4718 1.26849 38.5773 1.25971 38.687C1.25093 38.7968 1.27129 38.9069 1.31875 39.0063C1.36715 39.114 1.44509 39.2058 1.54354 39.2711C1.64199 39.3363 1.75691 39.3724 1.875 39.375H38.125C38.2404 39.3747 38.3535 39.3423 38.4517 39.2817C38.5499 39.221 38.6293 39.1343 38.6813 39.0312C38.7287 38.9319 38.7491 38.8218 38.7403 38.712C38.7315 38.6023 38.6939 38.4968 38.6313 38.4062L37.5312 36.875H38.1562C38.322 36.875 38.481 36.8092 38.5982 36.6919C38.7154 36.5747 38.7812 36.4158 38.7812 36.25V32.5C38.7813 32.087 38.6994 31.678 38.5404 31.2969C38.3814 30.9157 38.1484 30.5698 37.8549 30.2792C37.5614 29.9886 37.2132 29.759 36.8305 29.6038C36.4477 29.4487 36.038 29.3709 35.625 29.375ZM34.375 23.75C34.7458 23.75 35.1084 23.86 35.4167 24.066C35.725 24.272 35.9654 24.5649 36.1073 24.9075C36.2492 25.2501 36.2863 25.6271 36.214 25.9908C36.1416 26.3545 35.963 26.6886 35.7008 26.9508C35.4386 27.213 35.1045 27.3916 34.7408 27.464C34.3771 27.5363 34.0001 27.4992 33.6575 27.3573C33.3149 27.2154 33.022 26.975 32.816 26.6667C32.61 26.3584 32.5 25.9958 32.5 25.625C32.5 25.1277 32.6975 24.6508 33.0492 24.2992C33.4008 23.9475 33.8777 23.75 34.375 23.75ZM5.625 27.5C5.25416 27.5 4.89165 27.39 4.58331 27.184C4.27496 26.978 4.03464 26.6851 3.89273 26.3425C3.75081 25.9999 3.71368 25.6229 3.78603 25.2592C3.85838 24.8955 4.03695 24.5614 4.29917 24.2992C4.5614 24.037 4.89549 23.8584 5.25921 23.786C5.62292 23.7137 5.99992 23.7508 6.34253 23.8927C6.68514 24.0346 6.97798 24.275 7.18401 24.5833C7.39003 24.8916 7.5 25.2542 7.5 25.625C7.5 26.1223 7.30246 26.5992 6.95083 26.9508C6.59919 27.3025 6.12228 27.5 5.625 27.5ZM2.5 32.5C2.5 32.0027 2.69754 31.5258 3.04917 31.1742C3.40081 30.8225 3.87772 30.625 4.375 30.625H6.875H7.025L3.3875 35.625H2.5V32.5ZM3.125 38.125L14.0688 23.125H25.9437L36.875 38.125H3.125ZM37.5 35.625H36.6125L32.975 30.625H33.125H35.625C36.1223 30.625 36.5992 30.8225 36.9508 31.1742C37.3025 31.5258 37.5 32.0027 37.5 32.5V35.625Z" fill="#16A831"/>
<path d="M26.875 20C26.875 20.6181 27.0583 21.2223 27.4017 21.7362C27.745 22.2501 28.2331 22.6506 28.8041 22.8871C29.3751 23.1236 30.0035 23.1855 30.6097 23.065C31.2158 22.9444 31.7727 22.6467 32.2097 22.2097C32.6467 21.7727 32.9444 21.2158 33.065 20.6097C33.1855 20.0035 33.1236 19.3751 32.8871 18.8041C32.6506 18.2331 32.2501 17.745 31.7362 17.4017C31.2223 17.0583 30.6181 16.875 30 16.875C29.1712 16.875 28.3763 17.2042 27.7903 17.7903C27.2042 18.3763 26.875 19.1712 26.875 20ZM30 18.125C30.3708 18.125 30.7334 18.235 31.0417 18.441C31.35 18.647 31.5904 18.9399 31.7323 19.2825C31.8742 19.6251 31.9113 20.0021 31.839 20.3658C31.7666 20.7295 31.588 21.0636 31.3258 21.3258C31.0636 21.588 30.7295 21.7666 30.3658 21.839C30.0021 21.9113 29.6251 21.8742 29.2825 21.7323C28.9399 21.5904 28.647 21.35 28.441 21.0417C28.235 20.7334 28.125 20.3708 28.125 20C28.125 19.5027 28.3225 19.0258 28.6742 18.6742C29.0258 18.3225 29.5027 18.125 30 18.125Z" fill="#16A831"/>
<path d="M12.5001 33.125H8.75006C8.63464 33.1253 8.52158 33.1577 8.4234 33.2183C8.32521 33.279 8.24575 33.3657 8.19381 33.4687L6.94381 35.9687C6.89587 36.0639 6.87304 36.1697 6.8775 36.2762C6.88196 36.3826 6.91356 36.4861 6.96929 36.5769C7.02502 36.6677 7.10304 36.7428 7.19594 36.795C7.28883 36.8471 7.39352 36.8747 7.50006 36.875H12.5001C12.6658 36.875 12.8248 36.8092 12.942 36.6919C13.0592 36.5747 13.1251 36.4158 13.1251 36.25V33.75C13.1251 33.5842 13.0592 33.4253 12.942 33.3081C12.8248 33.1908 12.6658 33.125 12.5001 33.125ZM11.8751 35.625H8.51256L9.13756 34.375H11.8751V35.625Z" fill="#16A831"/>
<path d="M17.5001 25.625H13.7501C13.6346 25.6253 13.5216 25.6577 13.4234 25.7183C13.3252 25.779 13.2457 25.8657 13.1938 25.9687L11.9438 28.4687C11.8959 28.5639 11.873 28.6697 11.8775 28.7762C11.882 28.8826 11.9136 28.9861 11.9693 29.0769C12.025 29.1677 12.103 29.2428 12.1959 29.295C12.2888 29.3471 12.3935 29.3747 12.5001 29.375H17.5001C17.6658 29.375 17.8248 29.3092 17.942 29.1919C18.0592 29.0747 18.1251 28.9158 18.1251 28.75V26.25C18.1251 26.0842 18.0592 25.9253 17.942 25.8081C17.8248 25.6908 17.6658 25.625 17.5001 25.625ZM16.8751 28.125H13.5126L14.1376 26.875H16.8751V28.125Z" fill="#16A831"/>
<path d="M26.875 33.75V36.25C26.875 36.4158 26.9408 36.5747 27.0581 36.6919C27.1753 36.8092 27.3342 36.875 27.5 36.875H32.5C32.6065 36.8747 32.7112 36.8471 32.8041 36.795C32.897 36.7428 32.975 36.6677 33.0308 36.5769C33.0865 36.4861 33.1181 36.3826 33.1226 36.2762C33.127 36.1697 33.1042 36.0639 33.0562 35.9687L31.8062 33.4687C31.7543 33.3657 31.6748 33.279 31.5767 33.2183C31.4785 33.1577 31.3654 33.1253 31.25 33.125H27.5C27.3342 33.125 27.1753 33.1908 27.0581 33.3081C26.9408 33.4253 26.875 33.5842 26.875 33.75ZM28.125 34.375H30.8625L31.4875 35.625H28.125V34.375Z" fill="#16A831"/>
<path d="M21.875 26.25V28.75C21.875 28.9158 21.9408 29.0747 22.0581 29.1919C22.1753 29.3092 22.3342 29.375 22.5 29.375H27.5C27.6065 29.3747 27.7112 29.3471 27.8041 29.295C27.897 29.2428 27.975 29.1677 28.0308 29.0769C28.0865 28.9861 28.1181 28.8826 28.1226 28.7762C28.127 28.6697 28.1042 28.5639 28.0562 28.4687L26.8062 25.9687C26.7543 25.8657 26.6748 25.779 26.5767 25.7183C26.4785 25.6577 26.3654 25.6253 26.25 25.625H22.5C22.3342 25.625 22.1753 25.6908 22.0581 25.8081C21.9408 25.9253 21.875 26.0842 21.875 26.25ZM23.125 26.875H25.8625L26.4875 28.125H23.125V26.875Z" fill="#16A831"/>
<path d="M18.4563 2.01245L18.2375 0.762451C17.0961 0.975599 16.0006 1.3859 15 1.97495L15.625 3.0562C16.5003 2.54509 17.4586 2.1918 18.4563 2.01245Z" fill="#16A831"/>
<path d="M24.375 18.2L25 19.2813C26.0111 18.7015 26.9107 17.9459 27.6562 17.05L26.7062 16.25C26.0464 17.0285 25.2579 17.6881 24.375 18.2Z" fill="#16A831"/>
<path d="M12.3496 17.0625C13.0964 17.9548 13.9932 18.7098 14.9996 19.2938L15.6246 18.2125C14.7432 17.6985 13.9584 17.0344 13.3059 16.25L12.3496 17.0625Z" fill="#16A831"/>
<path d="M10.625 14.0625L11.8 13.6312C11.4402 12.6696 11.254 11.6517 11.25 10.625H10C10.0034 11.7988 10.215 12.9626 10.625 14.0625Z" fill="#16A831"/>
<path d="M26.6816 5.00007C27.3413 5.77906 27.8595 6.66746 28.2129 7.62507L29.3754 7.16882C28.9706 6.07484 28.3784 5.05969 27.6254 4.16882L26.6816 5.00007Z" fill="#16A831"/>
<path d="M28.2246 13.6187L29.3996 14.0437C29.8048 12.9598 30.0163 11.8132 30.0246 10.6562V10.5874L28.7496 10.6249C28.7522 11.6459 28.5744 12.6594 28.2246 13.6187Z" fill="#16A831"/>
<path d="M21.7057 0.768799L21.4932 2.0188C22.506 2.18287 23.4816 2.52571 24.3744 3.0313L24.9994 1.95005C23.9802 1.36422 22.8649 0.964244 21.7057 0.768799Z" fill="#16A831"/>
<path d="M10.625 7.22502L11.8 7.65002C12.1345 6.68665 12.6359 5.78964 13.2812 5.00002L12.325 4.21252C11.5864 5.10944 11.011 6.12909 10.625 7.22502Z" fill="#16A831"/>
<path d="M20 12.5C19.8342 12.5 19.6753 12.4342 19.5581 12.3169C19.4408 12.1997 19.375 12.0408 19.375 11.875H18.125C18.1261 12.2618 18.2468 12.6389 18.4706 12.9544C18.6944 13.27 19.0103 13.5086 19.375 13.6375V14.375H20.625V13.6375C21.0384 13.4875 21.3858 13.197 21.6067 12.8168C21.8276 12.4366 21.9078 11.9908 21.8334 11.5574C21.7589 11.1241 21.5345 10.7306 21.1994 10.4459C20.8642 10.1613 20.4397 10.0034 20 10C19.8764 10 19.7555 9.96334 19.6528 9.89467C19.55 9.82599 19.4699 9.72838 19.4226 9.61418C19.3753 9.49997 19.3629 9.37431 19.387 9.25307C19.4111 9.13183 19.4706 9.02047 19.5581 8.93306C19.6455 8.84565 19.7568 8.78612 19.8781 8.76201C19.9993 8.73789 20.125 8.75027 20.2392 8.79758C20.3534 8.84488 20.451 8.92499 20.5197 9.02777C20.5883 9.13055 20.625 9.25139 20.625 9.375H21.875C21.8739 8.98816 21.7532 8.61112 21.5294 8.29558C21.3056 7.98004 20.9897 7.74145 20.625 7.6125V6.875H19.375V7.6125C18.9616 7.76249 18.6142 8.05298 18.3933 8.43321C18.1724 8.81343 18.0922 9.25919 18.1666 9.69257C18.2411 10.1259 18.4655 10.5194 18.8006 10.8041C19.1358 11.0887 19.5603 11.2466 20 11.25C20.1658 11.25 20.3247 11.3158 20.4419 11.4331C20.5592 11.5503 20.625 11.7092 20.625 11.875C20.625 12.0408 20.5592 12.1997 20.4419 12.3169C20.3247 12.4342 20.1658 12.5 20 12.5Z" fill="#16A831"/>
<path d="M20 16.875C21.2361 16.875 22.4445 16.5084 23.4723 15.8217C24.5001 15.1349 25.3012 14.1588 25.7742 13.0168C26.2473 11.8747 26.3711 10.6181 26.1299 9.40569C25.8888 8.19331 25.2935 7.07966 24.4194 6.20559C23.5453 5.33151 22.4317 4.73625 21.2193 4.49509C20.0069 4.25394 18.7503 4.37771 17.6082 4.85076C16.4662 5.3238 15.4901 6.12488 14.8033 7.15269C14.1166 8.1805 13.75 9.38887 13.75 10.625C13.75 12.2826 14.4085 13.8723 15.5806 15.0444C16.7527 16.2165 18.3424 16.875 20 16.875ZM20 5.625C20.9889 5.625 21.9556 5.91825 22.7779 6.46765C23.6001 7.01706 24.241 7.79796 24.6194 8.71159C24.9978 9.62522 25.0969 10.6305 24.9039 11.6005C24.711 12.5704 24.2348 13.4613 23.5355 14.1605C22.8363 14.8598 21.9454 15.336 20.9755 15.5289C20.0055 15.7219 19.0002 15.6228 18.0866 15.2444C17.173 14.866 16.3921 14.2251 15.8427 13.4029C15.2932 12.5806 15 11.6139 15 10.625C15 9.29892 15.5268 8.02715 16.4645 7.08947C17.4021 6.15179 18.6739 5.625 20 5.625Z" fill="#16A831"/>
</svg>
