<svg width="40" height="40" viewBox="0 0 40 40" fill="none" xmlns="http://www.w3.org/2000/svg">
<path d="M3.125 3.125H36.875V36.875H3.125V3.125Z" stroke="#16A831" stroke-width="1.25" stroke-miterlimit="10" stroke-linecap="round" stroke-linejoin="round"/>
<path d="M5.625 5.625H15.625V15.625H5.625V5.625Z" stroke="#16A831" stroke-width="1.25" stroke-miterlimit="10" stroke-linecap="round" stroke-linejoin="round"/>
<path d="M8.125 8.125H13.125V13.125H8.125V8.125Z" stroke="#16A831" stroke-width="1.25" stroke-miterlimit="10" stroke-linecap="round" stroke-linejoin="round"/>
<path d="M10.625 8.125V13.125" stroke="#16A831" stroke-width="1.25" stroke-miterlimit="10" stroke-linecap="round" stroke-linejoin="round"/>
<path d="M5.625 21.875L8.1225 19.375L10.6206 21.875L13.1194 19.375L15.6225 21.875L18.125 19.375" stroke="#16A831" stroke-width="1.25" stroke-miterlimit="10" stroke-linecap="round" stroke-linejoin="round"/>
<path d="M17.5 31.25C18.5355 31.25 19.375 30.4105 19.375 29.375C19.375 28.3395 18.5355 27.5 17.5 27.5C16.4645 27.5 15.625 28.3395 15.625 29.375C15.625 30.4105 16.4645 31.25 17.5 31.25Z" stroke="#16A831" stroke-width="1.25" stroke-miterlimit="10" stroke-linecap="round" stroke-linejoin="round"/>
<path d="M30 30C30.6904 30 31.25 29.4404 31.25 28.75C31.25 28.0596 30.6904 27.5 30 27.5C29.3096 27.5 28.75 28.0596 28.75 28.75C28.75 29.4404 29.3096 30 30 30Z" stroke="#16A831" stroke-width="1.25" stroke-miterlimit="10" stroke-linecap="round" stroke-linejoin="round"/>
<path d="M7.5 28.125C8.53553 28.125 9.375 27.2855 9.375 26.25C9.375 25.2145 8.53553 24.375 7.5 24.375C6.46447 24.375 5.625 25.2145 5.625 26.25C5.625 27.2855 6.46447 28.125 7.5 28.125Z" stroke="#16A831" stroke-width="1.25" stroke-miterlimit="10" stroke-linecap="round" stroke-linejoin="round"/>
<path d="M7.5 34.375C8.53553 34.375 9.375 33.5355 9.375 32.5C9.375 31.4645 8.53553 30.625 7.5 30.625C6.46447 30.625 5.625 31.4645 5.625 32.5C5.625 33.5355 6.46447 34.375 7.5 34.375Z" stroke="#16A831" stroke-width="1.25" stroke-miterlimit="10" stroke-linecap="round" stroke-linejoin="round"/>
<path d="M15.2894 25.3994L14.4056 24.5156L12.6381 26.2831L13.5219 27.1669L13.125 28.1262H11.875V30.6262H13.125L13.5231 31.585L12.6394 32.4694L14.4069 34.2369L15.2906 33.3531L16.25 33.75V35H18.75V33.75L19.7094 33.3544L20.5931 34.2381L22.3606 32.47L21.4769 31.5856L21.8756 30.6262H23.1256L23.125 28.1262H21.875L21.4781 27.1656L22.3619 26.2819L20.5938 24.5144L19.71 25.3981L18.75 25V23.75H16.25V25L15.2894 25.3994Z" stroke="#16A831" stroke-width="1.25" stroke-miterlimit="10" stroke-linecap="round" stroke-linejoin="round"/>
<path d="M28.7669 31.875V33.1082C28.7669 33.1082 31.2338 33.1469 31.2338 33.1082V31.875L32.0969 31.3763L33.1644 31.9925C33.1644 31.9925 34.4313 29.875 34.3988 29.8557C34.3651 29.8369 33.3307 29.2394 33.3307 29.2394V28.2432L34.3976 27.6269C34.3976 27.6269 33.1976 25.4713 33.1644 25.4894C33.1313 25.5088 32.0963 26.1057 32.0963 26.1057L31.2507 25.625V24.375C31.2507 24.375 28.7507 24.3357 28.7507 24.375C28.7507 24.4144 28.7507 25.625 28.7507 25.625L27.9269 26.1007L26.8444 25.4757C26.8444 25.4757 25.5601 27.6213 25.5944 27.6407C25.6288 27.66 26.6769 28.2657 26.6769 28.2657L26.6763 29.2169L25.5944 29.8425C25.5944 29.8425 26.8101 32.0269 26.8438 32.0069C26.8782 31.9875 27.9263 31.3819 27.9263 31.3819L28.7669 31.875Z" stroke="#16A831" stroke-width="1.25" stroke-miterlimit="10" stroke-linecap="round" stroke-linejoin="round"/>
<path d="M34.375 5.625V20.625" stroke="#16A831" stroke-width="1.25" stroke-miterlimit="10" stroke-linecap="round" stroke-linejoin="round"/>
<path d="M20.625 5.625V20.625" stroke="#16A831" stroke-width="1.25" stroke-miterlimit="10" stroke-linecap="round" stroke-linejoin="round"/>
<path d="M29.375 7.5H27.5" stroke="#16A831" stroke-width="1.25" stroke-miterlimit="10" stroke-linecap="round" stroke-linejoin="round"/>
<path d="M34.375 7.5H31.25" stroke="#16A831" stroke-width="1.25" stroke-miterlimit="10" stroke-linecap="round" stroke-linejoin="round"/>
<path d="M25.625 7.5H20.625" stroke="#16A831" stroke-width="1.25" stroke-miterlimit="10" stroke-linecap="round" stroke-linejoin="round"/>
<path d="M34.375 13.125H29.375" stroke="#16A831" stroke-width="1.25" stroke-miterlimit="10" stroke-linecap="round" stroke-linejoin="round"/>
<path d="M23.125 13.125H20.625" stroke="#16A831" stroke-width="1.25" stroke-miterlimit="10" stroke-linecap="round" stroke-linejoin="round"/>
<path d="M27.5 13.125H25" stroke="#16A831" stroke-width="1.25" stroke-miterlimit="10" stroke-linecap="round" stroke-linejoin="round"/>
<path d="M34.375 18.75H32.5" stroke="#16A831" stroke-width="1.25" stroke-miterlimit="10" stroke-linecap="round" stroke-linejoin="round"/>
<path d="M30.625 18.75H20.625" stroke="#16A831" stroke-width="1.25" stroke-miterlimit="10" stroke-linecap="round" stroke-linejoin="round"/>
<path d="M29.375 5.625H31.25V9.375H29.375V5.625Z" stroke="#16A831" stroke-width="1.25" stroke-miterlimit="10" stroke-linecap="round" stroke-linejoin="round"/>
<path d="M25.625 5.625H27.5V9.375H25.625V5.625Z" stroke="#16A831" stroke-width="1.25" stroke-miterlimit="10" stroke-linecap="round" stroke-linejoin="round"/>
<path d="M27.5 11.25H29.375V15H27.5V11.25Z" stroke="#16A831" stroke-width="1.25" stroke-miterlimit="10" stroke-linecap="round" stroke-linejoin="round"/>
<path d="M23.125 11.25H25V15H23.125V11.25Z" stroke="#16A831" stroke-width="1.25" stroke-miterlimit="10" stroke-linecap="round" stroke-linejoin="round"/>
<path d="M30.625 16.875H32.5V20.625H30.625V16.875Z" stroke="#16A831" stroke-width="1.25" stroke-miterlimit="10" stroke-linecap="round" stroke-linejoin="round"/>
</svg>
