<svg width="40" height="40" viewBox="0 0 40 40" fill="none" xmlns="http://www.w3.org/2000/svg">
<path d="M34.8105 17.8507H34.0152C34.3738 16.9796 34.523 15.9812 34.4347 14.9242C34.416 14.6961 34.2347 14.5148 34.0066 14.4961C32.0066 14.3296 30.2191 15.0086 29.0996 16.3586C28.723 16.8125 28.4402 17.3195 28.2558 17.8507H27.648V16.964C29.1238 16.0226 30.098 14.3836 30.2714 12.5226C30.4855 10.2336 29.4949 8.03433 27.4816 6.33121C27.3066 6.18355 27.0503 6.18355 26.8761 6.33121C24.8628 8.03511 23.8722 10.2336 24.0863 12.5234C24.2605 14.3843 25.2347 16.0234 26.7097 16.9648V17.8515H25.4605C25.4394 17.825 25.4199 17.7984 25.3988 17.7726C24.3418 16.4976 22.6543 15.8562 20.7668 16.0132C20.5386 16.032 20.3574 16.2132 20.3386 16.4414C20.298 16.9273 20.3113 17.3992 20.3738 17.8515H5.18863C4.44488 17.8515 3.84019 18.4562 3.84019 19.2V37.4804C3.84019 38.2242 4.44488 38.8289 5.18863 38.8289H34.8097C35.5535 38.8289 36.1582 38.2242 36.1582 37.4804V19.1992C36.1589 18.4554 35.5535 17.8507 34.8105 17.8507ZM25.0207 12.4351C24.8464 10.5757 25.6113 8.77105 27.18 7.3148C28.7488 8.77105 29.5128 10.5757 29.3394 12.4351C29.1941 13.9921 28.3933 15.3617 27.18 16.1515C25.9668 15.3617 25.1668 13.9921 25.0207 12.4351ZM29.8214 16.957C30.6808 15.9203 31.9871 15.3781 33.5214 15.4093C33.5527 16.9468 33.0105 18.25 31.9738 19.1093C31.1097 19.8257 30.016 20.125 28.9972 19.9343C28.8058 18.9156 29.105 17.8211 29.8214 16.957ZM28.0378 18.7882C27.9824 19.239 27.9957 19.6953 28.0832 20.1406C27.9238 20.2757 27.7793 20.4211 27.6488 20.5781V18.7882H28.0378ZM27.0925 27.6609C28.3699 27.6609 29.4355 28.5843 29.6566 29.7984H24.5285C24.7496 28.5843 25.8152 27.6609 27.0925 27.6609ZM26.7113 18.7882V21.6734C26.605 21.5523 26.4886 21.439 26.3628 21.3312C26.5253 20.4828 26.4074 19.5953 26.0371 18.7882H26.7113ZM24.6769 18.3703C25.3402 19.1703 25.6191 20.1812 25.4488 21.1234C24.5066 21.2937 23.4957 21.014 22.6957 20.3515C21.7347 19.5554 21.23 18.35 21.2519 16.9265C22.6738 16.9054 23.8808 17.4093 24.6769 18.3703ZM35.2214 37.4796C35.2214 37.7062 35.0371 37.8906 34.8105 37.8906H5.18863C4.96206 37.8906 4.77769 37.7062 4.77769 37.4796V19.1992C4.77769 18.9726 4.96206 18.7882 5.18863 18.7882H20.5839C20.8722 19.6961 21.3863 20.4828 22.098 21.0726C22.9144 21.7492 23.9105 22.1093 24.9019 22.1093C25.18 22.1093 25.4574 22.0804 25.73 22.0234C26.2918 22.4968 26.5902 23.1461 26.7113 24.1453V26.7445C24.9363 26.9351 23.5488 28.4421 23.5488 30.2671C23.5488 30.3914 23.598 30.5109 23.6863 30.5984C23.7746 30.6867 23.8933 30.7359 24.0175 30.7359H30.1675C30.4261 30.7359 30.6363 30.5257 30.6363 30.2671C30.6363 28.5023 29.3394 27.0351 27.6488 26.7671V23.1234C27.78 22.0429 28.1035 21.3429 28.716 20.8328C29.0089 20.8961 29.3074 20.9273 29.6058 20.9273C30.6535 20.9273 31.7082 20.5468 32.5714 19.8304C32.9355 19.5289 33.2503 19.1781 33.5136 18.7875H34.8105C35.0371 18.7875 35.2214 18.9718 35.2214 19.1984V37.4796ZM9.8316 30.7359H20.0011C20.2597 30.7359 20.4699 30.5257 20.4699 30.2671V21.2789C20.4699 21.0203 20.2597 20.8101 20.0011 20.8101H9.8316C9.573 20.8101 9.36285 21.0203 9.36285 21.2789V30.2679C9.36285 30.5265 9.573 30.7359 9.8316 30.7359ZM17.7988 29.7984H12.0339V29.4609C12.0339 28.6671 12.68 28.0211 13.4738 28.0211H16.3582C17.1519 28.0211 17.798 28.6671 17.798 29.4609V29.7984H17.7988ZM10.3003 21.7476H19.5324V29.7992H18.7363V29.4617C18.7363 28.1507 17.6699 27.0843 16.3589 27.0843H13.4746C12.1636 27.0843 11.0972 28.1507 11.0972 29.4617V29.7992H10.3011V21.7476H10.3003ZM32.6793 33.2265C32.6793 33.4851 32.4691 33.6953 32.2105 33.6953H7.78863C7.53003 33.6953 7.31988 33.4851 7.31988 33.2265C7.31988 32.9679 7.53003 32.7578 7.78863 32.7578H32.2105C32.4691 32.7578 32.6793 32.9679 32.6793 33.2265ZM32.6793 35.4C32.6793 35.6586 32.4691 35.8687 32.2105 35.8687H7.78863C7.53003 35.8687 7.31988 35.6586 7.31988 35.4C7.31988 35.1414 7.53003 34.9312 7.78863 34.9312H32.2105C32.4691 34.9312 32.6793 35.1414 32.6793 35.4ZM5.14488 7.4773L6.37535 7.80699L6.223 9.20152C6.198 9.43121 6.34409 9.64527 6.56753 9.70543L11.3878 10.9968C11.4285 11.0078 11.4691 11.0132 11.5089 11.0132C11.5589 11.0132 11.6082 11.0046 11.655 10.989V10.9898L15.5886 9.69605L15.7128 10.1601C15.7472 10.289 15.8347 10.3968 15.9535 10.457C16.0199 10.4906 16.0925 10.5078 16.1652 10.5078C16.223 10.5078 16.28 10.4968 16.3347 10.4757L18.0378 9.81324C18.2605 9.72652 18.3824 9.4859 18.3207 9.25465L17.3855 5.76558C17.3238 5.53433 17.098 5.38746 16.8613 5.4234L15.055 5.70152C14.9238 5.72183 14.8066 5.79683 14.7339 5.90855C14.6613 6.02027 14.6394 6.15699 14.6738 6.2859L14.798 6.74996L13.5793 7.00465L15.0238 3.72652C15.0793 3.60152 15.0769 3.45855 15.0175 3.33511C14.9582 3.21168 14.848 3.12027 14.716 3.08511L7.64019 1.18746C7.50816 1.1523 7.36675 1.17574 7.25425 1.25308C7.14097 1.33043 7.06753 1.45308 7.05269 1.58902L6.91597 2.8398L6.42144 2.70699C5.48472 2.45543 4.51753 3.01402 4.26675 3.95074L3.89956 5.32105C3.64956 6.25933 4.20738 7.22574 5.14488 7.4773ZM16.5918 6.41402L17.3089 9.09137L16.4847 9.41168L15.7175 6.5484L16.5918 6.41402ZM15.0433 7.65699L15.3464 8.78824L12.3628 9.76949L13.1168 8.05855L15.0433 7.65699ZM7.92613 2.23511L13.948 3.8484L11.2433 9.98746L7.19956 8.90387L7.92613 2.23511ZM4.80581 5.5648L5.173 4.19449C5.29019 3.75699 5.74175 3.49605 6.18003 3.61324L6.81441 3.78277L6.47847 6.86324L5.38785 6.57105C4.94956 6.45465 4.68863 6.0023 4.80581 5.5648ZM19.7441 6.51871L21.8214 5.96246C22.0714 5.89527 22.3285 6.04371 22.3957 6.29371C22.4628 6.54371 22.3144 6.80074 22.0644 6.86793L19.9871 7.42418C19.9464 7.43511 19.9058 7.44058 19.8652 7.44058C19.6582 7.44058 19.4691 7.3023 19.4128 7.09293C19.3449 6.84293 19.4933 6.5859 19.7441 6.51871ZM22.3949 9.70777C22.3386 9.91715 22.1496 10.0554 21.9425 10.0554C21.9027 10.0554 21.8613 10.05 21.8207 10.039L19.7433 9.48277C19.4933 9.41558 19.3449 9.15855 19.4121 8.90855C19.4793 8.65855 19.7363 8.51012 19.9863 8.5773L22.0636 9.13355C22.3136 9.20074 22.4621 9.45777 22.3949 9.70777ZM18.5043 5.52027C18.3214 5.33746 18.3214 5.04058 18.5043 4.85699L20.0246 3.33668C20.2074 3.15386 20.5043 3.15386 20.6871 3.33668C20.8699 3.51949 20.8699 3.81636 20.6871 3.99996L19.1668 5.52027C19.0753 5.61168 18.955 5.65777 18.8355 5.65777C18.716 5.65777 18.5957 5.61168 18.5043 5.52027ZM14.9168 26.6562C16.1449 26.6562 17.1449 25.657 17.1449 24.4281C17.1449 23.1992 16.1457 22.2 14.9168 22.2C13.6878 22.2 12.6886 23.1992 12.6886 24.4281C12.6886 25.657 13.6878 26.6562 14.9168 26.6562ZM14.9168 23.1382C15.6285 23.1382 16.2074 23.7171 16.2074 24.4289C16.2074 25.1406 15.6285 25.7195 14.9168 25.7195C14.205 25.7195 13.6261 25.1406 13.6261 24.4289C13.6261 23.7171 14.205 23.1382 14.9168 23.1382Z" fill="#16A831"/>
</svg>
