<svg width="40" height="40" viewBox="0 0 40 40" fill="none" xmlns="http://www.w3.org/2000/svg">
<path d="M37.7266 6.33594H29.9219V2.42969C29.9219 2 29.5703 1.64844 29.1406 1.64844H10.3906C9.96094 1.64844 9.60938 2 9.60938 2.42969V6.33594H1.79688C1.36719 6.33594 1.01562 6.6875 1.01562 7.11719V18.0547C1.01562 18.4844 1.36719 18.8359 1.79688 18.8359H3.35938V38.3594C3.35938 38.7891 3.71094 39.1406 4.14062 39.1406H35.3828C35.8125 39.1406 36.1641 38.7891 36.1641 38.3594V18.8281H37.7266C38.1562 18.8281 38.5078 18.4766 38.5078 18.0469V7.10938C38.5078 6.67969 38.1562 6.33594 37.7266 6.33594ZM11.1719 3.21094H28.3594V6.33594H11.1719V3.21094ZM27.9141 25.6562H20.625C20.4688 25.6562 20.3203 25.7031 20.1875 25.7891L4.92969 36.0469V34.0859L20.7891 23.4844H27.9141C28.3438 23.4844 28.6953 23.1328 28.6953 22.7031V22.1328L31.6875 24.7891L28.6953 27.4453V26.4375C28.6953 26.0078 28.3438 25.6562 27.9141 25.6562ZM34.6016 37.5703H33.0391V34.4453C33.0391 34.0156 32.6875 33.6641 32.2578 33.6641C31.8281 33.6641 31.4766 34.0156 31.4766 34.4453V37.5703H28.3516V32.8828C28.3516 32.4531 28 32.1016 27.5703 32.1016C27.1406 32.1016 26.7891 32.4531 26.7891 32.8828V37.5703H23.6641V28.9844C23.6641 28.5547 23.3125 28.2031 22.8828 28.2031C22.4531 28.2031 22.1016 28.5547 22.1016 28.9844V37.5781H18.9766V32.1094C18.9766 31.6797 18.625 31.3281 18.1953 31.3281C17.7656 31.3281 17.4141 31.6797 17.4141 32.1094V37.5781H14.2891V34.4531C14.2891 34.0234 13.9375 33.6719 13.5078 33.6719C13.0781 33.6719 12.7266 34.0234 12.7266 34.4531V37.5781H5.46094L20.8594 27.2188H27.1328V29.1875C27.1328 29.8594 27.9297 30.2188 28.4297 29.7734L33.375 25.375C33.7266 25.0625 33.7266 24.5156 33.375 24.2109L28.4297 19.8125C27.9219 19.3672 27.1328 19.7266 27.1328 20.3984V21.9297H20.5469C20.3906 21.9297 20.2422 21.9766 20.1094 22.0625L4.92188 32.2188V18.8281H34.6016V37.5703ZM36.9453 17.2656C30.1484 17.2656 9.6875 17.2656 2.58594 17.2656V7.89062H36.9453V17.2656Z" fill="#16A831"/>
<path d="M22.8906 10.2344H16.6406C15.3516 10.2344 14.2969 11.2812 14.2969 12.5781C14.2969 13.8672 15.3516 14.9219 16.6406 14.9219H22.8906C24.1797 14.9219 25.2344 13.8672 25.2344 12.5781C25.2344 11.2891 24.1797 10.2344 22.8906 10.2344ZM22.8906 13.3594H16.6406C16.2109 13.3594 15.8594 13.0078 15.8594 12.5781C15.8594 12.1484 16.2109 11.7969 16.6406 11.7969H22.8906C23.3203 11.7969 23.6719 12.1484 23.6719 12.5781C23.6719 13.0078 23.3203 13.3594 22.8906 13.3594Z" fill="#16A831"/>
</svg>
