<svg width="49" height="49" viewBox="0 0 49 49" fill="none" xmlns="http://www.w3.org/2000/svg">
<path d="M17.2785 13.5649C23.7199 13.5649 28.9488 18.036 28.9488 23.6438C28.9488 29.2516 23.7199 33.7227 17.2785 33.7227C10.8371 33.7227 5.6082 29.2516 5.6082 23.6438C5.6082 18.036 10.8371 13.5649 17.2785 13.5649ZM17.2785 12.2766C10.0793 12.2766 4.24414 17.354 4.24414 23.6438C4.24414 29.9336 10.0793 35.011 17.2785 35.011C24.4777 35.011 30.3129 29.9336 30.3129 23.6438C30.3129 17.354 24.4777 12.2766 17.2785 12.2766Z" fill="#16A831"/>
<path d="M4.69919 38.5726C4.77497 38.5726 4.92654 38.5726 5.00232 38.6483C5.30544 38.6483 5.45701 38.7999 5.53279 38.9515C5.45701 38.9515 5.38122 39.0272 5.22966 39.0272C5.15388 39.0272 5.00232 39.0272 4.92654 38.9515C4.62341 38.8757 4.47185 38.7241 4.39607 38.6483C4.47185 38.5726 4.54763 38.5726 4.69919 38.5726ZM4.69919 37.2085C3.8656 37.2085 3.25935 37.5874 3.03201 38.2694C2.80466 39.103 3.48669 39.9366 4.54763 40.2397C4.77497 40.3155 5.00232 40.3155 5.22966 40.3155C6.06326 40.3155 6.66951 39.9366 6.89685 39.2546C7.12419 38.421 6.44216 37.5874 5.38122 37.2843C5.15388 37.2843 4.92654 37.2085 4.69919 37.2085Z" fill="#16A831"/>
<path d="M7.12303 34.5562C7.50193 34.5562 7.88084 34.632 8.33553 34.7078C8.94178 34.8593 9.54803 35.1625 9.92693 35.4656C10.2301 35.6929 10.3058 35.9203 10.3816 35.996C10.3058 36.0718 9.92693 36.2992 9.16912 36.2992C8.79022 36.2992 8.41131 36.2234 7.95662 36.1476C7.35037 35.996 6.74412 35.6929 6.36522 35.3898C6.06209 35.0867 5.91053 34.9351 5.91053 34.8593C5.98631 34.7078 6.36522 34.5562 7.12303 34.5562ZM7.12303 33.1921C5.83475 33.1921 4.84959 33.6468 4.62225 34.4804C4.31912 35.5414 5.68319 36.9054 7.6535 37.3601C8.18397 37.5117 8.71443 37.5875 9.16912 37.5875C10.4574 37.5875 11.4426 37.1328 11.6699 36.2992C11.973 35.2382 10.609 33.8742 8.63865 33.4195C8.10818 33.2679 7.57772 33.1921 7.12303 33.1921Z" fill="#16A831"/>
<path d="M43.8777 32.7375H43.9534C43.8777 32.8133 43.8019 32.8891 43.6503 32.8891C43.5745 32.8891 43.4988 32.8891 43.423 32.8891H43.3472C43.423 32.8133 43.4987 32.7375 43.6503 32.7375H43.8777ZM43.8777 31.4492C43.6503 31.4492 43.4987 31.4492 43.2714 31.525C42.362 31.7523 41.68 32.5859 41.9073 33.3438C42.0589 33.95 42.6652 34.3289 43.423 34.3289C43.6503 34.3289 43.8019 34.3289 44.0292 34.2531C45.0144 34.0258 45.6206 33.1922 45.4691 32.4344C45.3175 31.8281 44.6355 31.4492 43.8777 31.4492Z" fill="#16A831"/>
<path d="M41.6793 29.0242C42.2098 29.0242 42.5129 29.1758 42.6645 29.2516C42.5887 29.3273 42.5129 29.4789 42.2855 29.6305C41.9066 29.9336 41.452 30.1609 40.8457 30.3125C40.4668 30.3883 40.0879 30.4641 39.7848 30.4641C39.2543 30.4641 38.9512 30.3125 38.7996 30.2367C38.8754 30.1609 38.9512 30.0094 39.1785 29.8578C39.5574 29.5547 40.0121 29.3273 40.6184 29.1758C40.9973 29.1 41.3004 29.0242 41.6793 29.0242ZM41.6793 27.6602C41.2246 27.6602 40.7699 27.7359 40.2395 27.8875C38.4207 28.3422 37.2082 29.5547 37.4356 30.6156C37.6629 31.3734 38.5723 31.7523 39.7848 31.7523C40.2395 31.7523 40.6941 31.6766 41.2246 31.525C43.0434 31.0703 44.2559 29.8578 44.0285 28.7969C43.8012 28.1148 42.8918 27.6602 41.6793 27.6602Z" fill="#16A831"/>
<path d="M32.207 9.54839C38.118 9.54839 42.968 13.7164 42.968 18.7937C42.968 23.871 38.118 28.039 32.207 28.039C32.1313 28.039 31.9797 28.039 31.9039 28.039C32.4344 26.5992 32.7375 25.1593 32.7375 23.6437C32.7375 18.7179 29.8578 14.2468 25.1594 11.8218C27.0539 10.3062 29.5547 9.54839 32.207 9.54839ZM32.207 8.18433C28.418 8.18433 25.0078 9.69995 22.7344 12.125C27.8117 14.0195 31.3734 18.4148 31.3734 23.5679C31.3734 25.5382 30.843 27.4328 29.8578 29.1C30.6156 29.2515 31.3734 29.3273 32.1313 29.3273C38.8 29.3273 44.2563 24.6289 44.2563 18.7179C44.2563 12.9585 38.8758 8.18433 32.207 8.18433Z" fill="#16A831"/>
</svg>
