<svg width="48" height="48" viewBox="0 0 48 48" fill="none" xmlns="http://www.w3.org/2000/svg">
<path d="M24 1.5C11.595 1.5 1.5 11.595 1.5 24C1.5 36.405 11.595 46.5 24 46.5C36.405 46.5 46.5 36.405 46.5 24C46.5 11.595 36.405 1.5 24 1.5ZM24 43.5C13.245 43.5 4.5 34.755 4.5 24C4.5 13.245 13.245 4.5 24 4.5C34.755 4.5 43.5 13.245 43.5 24C43.5 34.755 34.755 43.5 24 43.5Z" fill="#16A831"/>
<path d="M24 7.5C14.895 7.5 7.5 14.895 7.5 24C7.5 33.105 14.895 40.5 24 40.5C33.105 40.5 40.5 33.105 40.5 24C40.5 14.895 33.105 7.5 24 7.5ZM24 37.5C16.56 37.5 10.5 31.44 10.5 24C10.5 16.56 16.56 10.5 24 10.5C31.44 10.5 37.5 16.56 37.5 24C37.5 31.44 31.44 37.5 24 37.5Z" fill="#16A831"/>
<path d="M27.75 30H25.5V21C25.5 20.175 24.825 19.5 24 19.5H21C20.175 19.5 19.5 20.175 19.5 21C19.5 21.825 20.175 22.5 21 22.5H22.5V30H20.25C19.425 30 18.75 30.675 18.75 31.5C18.75 32.325 19.425 33 20.25 33H27.75C28.575 33 29.25 32.325 29.25 31.5C29.25 30.675 28.575 30 27.75 30Z" fill="#16A831"/>
<path d="M22.5 18H24C24.825 18 25.5 17.325 25.5 16.5C25.5 15.675 24.825 15 24 15H22.5C21.675 15 21 15.675 21 16.5C21 17.325 21.675 18 22.5 18Z" fill="#16A831"/>
</svg>
