<svg width="40" height="40" viewBox="0 0 40 40" fill="none" xmlns="http://www.w3.org/2000/svg">
<g clip-path="url(#clip0_117_4279)">
<path d="M19.9997 34.6667C22.9005 34.6667 25.7361 33.8065 28.148 32.1949C30.56 30.5833 32.4398 28.2927 33.5499 25.6127C34.66 22.9328 34.9504 19.9838 34.3845 17.1387C33.8186 14.2937 32.4217 11.6803 30.3706 9.62915C28.3194 7.57798 25.7061 6.18111 22.861 5.6152C20.0159 5.04928 17.067 5.33973 14.387 6.44981C11.707 7.5599 9.41638 9.43976 7.80479 11.8517C6.19319 14.2636 5.33301 17.0993 5.33301 20C5.33742 23.8885 6.88407 27.6165 9.63365 30.3661C12.3832 33.1157 16.1112 34.6623 19.9997 34.6667ZM19.9997 6.66671C22.6368 6.66671 25.2146 7.4487 27.4073 8.91379C29.5999 10.3789 31.3089 12.4613 32.3181 14.8976C33.3272 17.334 33.5913 20.0148 33.0768 22.6013C32.5623 25.1877 31.2925 27.5634 29.4278 29.4281C27.5631 31.2928 25.1873 32.5627 22.6009 33.0772C20.0145 33.5917 17.3336 33.3276 14.8972 32.3184C12.4609 31.3093 10.3785 29.6003 8.91341 27.4077C7.44833 25.215 6.66634 22.6371 6.66634 20C6.6704 16.4651 8.07646 13.076 10.5761 10.5764C13.0757 8.07683 16.4647 6.67077 19.9997 6.66671Z" fill="#16A831"/>
<path d="M1.65836 23.4974L3.07236 23.7294C3.5065 25.7204 4.29212 27.6181 5.39236 29.3334L4.56569 30.4887C4.32456 30.8174 4.19739 31.2158 4.20353 31.6234C4.20967 32.031 4.34877 32.4255 4.59969 32.7467C4.96769 33.1981 5.39369 33.6661 5.86636 34.1381C6.27502 34.5454 6.71436 34.9454 7.27236 35.4147C7.59133 35.6606 7.98161 35.7961 8.38435 35.8008C8.78708 35.8055 9.18041 35.6791 9.50502 35.4407L10.6664 34.6074C12.3818 35.7077 14.2798 36.4933 16.271 36.9274L16.5024 38.3407C16.5661 38.741 16.7584 39.1096 17.0502 39.3909C17.342 39.6723 17.7174 39.851 18.1197 39.9001C19.3721 40.0338 20.6353 40.0338 21.8877 39.9001C22.2886 39.85 22.6624 39.671 22.9527 39.39C23.243 39.109 23.434 38.7412 23.497 38.3421L23.729 36.9281C25.7201 36.4937 27.6178 35.7079 29.333 34.6074L30.4957 35.4394C30.825 35.6798 31.2239 35.8057 31.6315 35.798C32.0392 35.7903 32.4331 35.6494 32.753 35.3967C33.2864 34.9454 33.7284 34.5454 34.137 34.1381C34.5862 33.6917 35.0126 33.2229 35.4144 32.7334C35.6598 32.4142 35.795 32.024 35.7996 31.6214C35.8043 31.2188 35.6783 30.8255 35.4404 30.5007L34.607 29.3334C35.7073 27.6179 36.493 25.72 36.927 23.7287L38.3404 23.4967C38.7405 23.433 39.1091 23.2408 39.3904 22.9492C39.6717 22.6575 39.8505 22.2823 39.8997 21.8801C40.033 20.6303 40.033 19.3698 39.8997 18.1201V18.1121C39.8498 17.7111 39.6708 17.3372 39.3897 17.0469C39.1087 16.7566 38.7408 16.5656 38.3417 16.5027L36.9277 16.2707C36.4933 14.2796 35.7075 12.3819 34.607 10.6667L35.439 9.50405C35.6786 9.17614 35.8047 8.77906 35.7982 8.37302C35.7917 7.96697 35.653 7.57413 35.403 7.25405C35.0076 6.76656 34.5847 6.30203 34.1364 5.86272C33.6904 5.41354 33.222 4.98722 32.733 4.58538C32.4141 4.33947 32.0238 4.20396 31.621 4.19927C31.2183 4.19458 30.825 4.32097 30.5004 4.55938L29.333 5.39272C27.6175 4.29245 25.7196 3.50682 23.7284 3.07272L23.497 1.65938C23.4333 1.25912 23.241 0.89048 22.9492 0.609164C22.6574 0.327848 22.282 0.149142 21.8797 0.100049C20.6273 -0.0353029 19.364 -0.0353029 18.1117 0.100049C17.7107 0.149958 17.3369 0.328945 17.0466 0.609995C16.7562 0.891046 16.5652 1.25891 16.5024 1.65805L16.2704 3.07205C14.2793 3.50644 12.3816 4.29229 10.6664 5.39272L9.50302 4.56072C9.1751 4.32079 8.77767 4.19476 8.37141 4.20186C7.96514 4.20896 7.57236 4.34881 7.25302 4.60005C6.77008 4.99526 6.30728 5.41445 5.86636 5.85605C5.41379 6.2992 4.9873 6.76821 4.58902 7.26072C4.34143 7.58008 4.20441 7.97131 4.19864 8.37537C4.19287 8.77943 4.31865 9.17441 4.55702 9.50072L5.39236 10.6667C4.29205 12.3822 3.50642 14.2801 3.07236 16.2714L1.65902 16.5027C1.25876 16.5665 0.89012 16.7588 0.608804 17.0505C0.327488 17.3423 0.148783 17.7177 0.0996895 18.1201C-0.0345319 19.3729 -0.0345319 20.6365 0.0996895 21.8894C0.150633 22.2899 0.330078 22.6632 0.611106 22.9531C0.892134 23.243 1.25959 23.434 1.65836 23.4974ZM1.42569 18.2627C1.44213 18.1501 1.49472 18.046 1.57552 17.9659C1.65633 17.8858 1.76097 17.8341 1.87369 17.8187L3.74036 17.5127C3.87526 17.4907 4.00012 17.4277 4.09803 17.3323C4.19593 17.2369 4.26214 17.1137 4.28769 16.9794C4.69293 14.8464 5.53254 12.8195 6.75436 11.0247C6.83085 10.912 6.87097 10.7785 6.8693 10.6423C6.86763 10.506 6.82426 10.3736 6.74502 10.2627L5.64302 8.72272C5.57529 8.63296 5.53765 8.52409 5.5355 8.41166C5.53334 8.29924 5.56678 8.189 5.63102 8.09672C5.99763 7.64402 6.39006 7.21286 6.80636 6.80538C7.24636 6.36538 7.68102 5.97005 8.08369 5.64138C8.17619 5.57167 8.28887 5.53396 8.40469 5.53396C8.52052 5.53396 8.63319 5.57167 8.72569 5.64138L10.2637 6.74205C10.3746 6.82143 10.5072 6.86489 10.6436 6.86656C10.7799 6.86823 10.9135 6.82803 11.0264 6.75138C12.8207 5.52925 14.8474 4.6896 16.9804 4.28472C17.1146 4.25917 17.2378 4.19296 17.3332 4.09505C17.4286 3.99715 17.4916 3.87229 17.5137 3.73738L17.8197 1.87072C17.8348 1.75921 17.8854 1.65555 17.9641 1.57509C18.0427 1.49463 18.1452 1.44167 18.2564 1.42405C19.4137 1.29938 20.581 1.29938 21.7384 1.42405C21.8509 1.44049 21.9551 1.49308 22.0352 1.57388C22.1153 1.65469 22.1669 1.75933 22.1824 1.87205L22.4884 3.73872C22.5104 3.87362 22.5734 3.99848 22.6688 4.09639C22.7642 4.19429 22.8874 4.2605 23.0217 4.28605C25.1546 4.69093 27.1813 5.53058 28.9757 6.75272C29.0885 6.82936 29.2221 6.86956 29.3585 6.86789C29.4949 6.86622 29.6275 6.82277 29.7384 6.74338L31.2784 5.64138C31.3678 5.57296 31.4768 5.5349 31.5894 5.53274C31.702 5.53059 31.8123 5.56444 31.9044 5.62938C32.321 5.96938 32.7557 6.36272 33.2024 6.81072C33.614 7.21439 34.0024 7.64108 34.3657 8.08872C34.4327 8.18147 34.4681 8.2933 34.4666 8.4077C34.4652 8.52211 34.427 8.63302 34.3577 8.72405L33.257 10.262C33.1778 10.3729 33.1344 10.5053 33.1328 10.6416C33.1311 10.7778 33.1712 10.9113 33.2477 11.0241C34.4695 12.8188 35.3091 14.8457 35.7144 16.9787C35.7399 17.113 35.8061 17.2362 35.904 17.3316C36.0019 17.427 36.1268 17.49 36.2617 17.5121L38.1284 17.8181C38.2405 17.8334 38.3446 17.8847 38.4252 17.9641C38.5058 18.0435 38.5586 18.1468 38.5757 18.2587C38.6988 19.4143 38.6988 20.5798 38.5757 21.7354C38.5571 21.8473 38.5037 21.9505 38.4232 22.0305C38.3427 22.1104 38.2391 22.1629 38.127 22.1807L36.2604 22.4867C36.1255 22.5088 36.0006 22.5718 35.9027 22.6672C35.8048 22.7626 35.7386 22.8858 35.713 23.0201C35.3078 25.1531 34.4682 27.18 33.2464 28.9747C33.1699 29.0875 33.1297 29.2209 33.1314 29.3572C33.1331 29.4934 33.1765 29.6259 33.2557 29.7367L34.363 31.2841C34.429 31.3734 34.4651 31.4813 34.4663 31.5923C34.4675 31.7034 34.4337 31.812 34.3697 31.9027C33.9997 32.3525 33.6075 32.7835 33.1944 33.1941C32.8144 33.5747 32.401 33.9501 31.917 34.3581C31.8245 34.4278 31.7119 34.4655 31.596 34.4655C31.4802 34.4655 31.3675 34.4278 31.275 34.3581L29.737 33.2574C29.6262 33.1782 29.4937 33.1348 29.3575 33.1331C29.2213 33.1314 29.0878 33.1716 28.975 33.2481C27.1803 34.4699 25.1534 35.3095 23.0204 35.7147C22.8861 35.7403 22.7629 35.8065 22.6675 35.9044C22.5721 36.0023 22.5091 36.1271 22.487 36.2621L22.181 38.1287C22.166 38.2401 22.1154 38.3437 22.0369 38.4242C21.9584 38.5046 21.856 38.5576 21.745 38.5754C20.5877 38.7001 19.4203 38.7001 18.263 38.5754C18.1503 38.5591 18.046 38.5066 17.9658 38.4257C17.8856 38.3449 17.8338 38.2402 17.8184 38.1274L17.5124 36.2607C17.4903 36.1258 17.4273 36.0009 17.3319 35.903C17.2365 35.8051 17.1133 35.7389 16.979 35.7134C14.846 35.3082 12.8191 34.4685 11.0244 33.2467C10.9116 33.1702 10.7781 33.1301 10.6419 33.1318C10.5057 33.1334 10.3732 33.1768 10.2624 33.2561L8.72236 34.3581C8.63447 34.4259 8.52738 34.4643 8.41638 34.4676C8.30539 34.471 8.19618 34.4392 8.10436 34.3767C7.59836 33.9507 7.18502 33.5767 6.80502 33.1947C6.36502 32.7547 5.96969 32.3201 5.64102 31.9174C5.57131 31.8249 5.53361 31.7122 5.53361 31.5964C5.53361 31.4806 5.57131 31.3679 5.64102 31.2754L6.74169 29.7374C6.82093 29.6265 6.8643 29.4941 6.86597 29.3579C6.86764 29.2216 6.82752 29.0881 6.75102 28.9754C5.52921 27.1806 4.68959 25.1537 4.28436 23.0207C4.25881 22.8864 4.1926 22.7632 4.09469 22.6678C3.99679 22.5724 3.87193 22.5094 3.73702 22.4874L1.87036 22.1814C1.75985 22.1641 1.65748 22.1128 1.57744 22.0347C1.4974 21.9565 1.44366 21.8554 1.42369 21.7454C1.29969 20.5878 1.29969 19.4203 1.42369 18.2627H1.42569Z" fill="#16A831"/>
<path d="M13.3337 28.6666H27.3337C27.8641 28.6666 28.3728 28.4559 28.7479 28.0808C29.1229 27.7058 29.3337 27.1971 29.3337 26.6666V24.4813C29.5357 24.3652 29.7036 24.198 29.8206 23.9965C29.9377 23.795 29.9996 23.5663 30.0003 23.3333V20.6666C29.9996 20.4336 29.9377 20.2049 29.8206 20.0034C29.7036 19.8019 29.5357 19.6347 29.3337 19.5186V17.3333C29.3335 17.0543 29.2739 16.7785 29.159 16.5242C29.044 16.27 28.8763 16.0431 28.667 15.8586V13.3333C28.667 12.8029 28.4563 12.2942 28.0812 11.9191C27.7061 11.544 27.1974 11.3333 26.667 11.3333H25.9203C25.8561 11.1433 25.7518 10.9693 25.6144 10.8231C25.4771 10.6769 25.31 10.5619 25.1243 10.486L19.1843 8.11529C18.8525 7.97714 18.4799 7.97389 18.1457 8.10624C17.8116 8.23859 17.5422 8.49608 17.395 8.82396L16.2543 11.3333H13.3337C12.6264 11.3333 11.9481 11.6142 11.448 12.1143C10.9479 12.6144 10.667 13.2927 10.667 14V26C10.667 26.7072 10.9479 27.3855 11.448 27.8856C11.9481 28.3857 12.6264 28.6666 13.3337 28.6666ZM27.3337 27.3333H13.3337C12.98 27.3333 12.6409 27.1928 12.3909 26.9428C12.1408 26.6927 12.0003 26.3536 12.0003 26V16.3086C12.4053 16.5438 12.8654 16.6674 13.3337 16.6666H27.3337C27.5101 16.6677 27.6791 16.7383 27.8039 16.863C27.9287 16.9878 27.9993 17.1568 28.0003 17.3333V19.3333H27.3337C26.6264 19.3333 25.9481 19.6142 25.448 20.1143C24.9479 20.6144 24.667 21.2927 24.667 22C24.667 22.7072 24.9479 23.3855 25.448 23.8856C25.9481 24.3857 26.6264 24.6666 27.3337 24.6666H28.0003V26.6666C28.0003 26.8434 27.9301 27.013 27.8051 27.138C27.68 27.2631 27.5105 27.3333 27.3337 27.3333ZM21.1297 10.3273L22.3003 10.794C22.1283 11.1228 22.028 11.4842 22.0058 11.8546C21.9836 12.225 22.0401 12.5959 22.1716 12.9429C22.3031 13.2898 22.5066 13.605 22.7687 13.8677C23.0309 14.1303 23.3456 14.3344 23.6923 14.4666L23.3783 15.3333H15.901L17.5337 11.738C17.8601 11.8957 18.2157 11.9843 18.5781 11.9981C18.9404 12.0119 19.3017 11.9507 19.6393 11.8182C19.9768 11.6857 20.2834 11.4849 20.5396 11.2284C20.7958 10.9718 20.9963 10.665 21.1283 10.3273H21.1297ZM27.3337 23.3333C26.98 23.3333 26.6409 23.1928 26.3908 22.9428C26.1408 22.6927 26.0003 22.3536 26.0003 22C26.0003 21.6463 26.1408 21.3072 26.3908 21.0572C26.6409 20.8071 26.98 20.6666 27.3337 20.6666H28.667V23.3333H27.3337ZM25.767 12.6666H26.667C26.8438 12.6666 27.0134 12.7369 27.1384 12.8619C27.2634 12.9869 27.3337 13.1565 27.3337 13.3333V15.3333H24.8003L25.767 12.6666ZM24.663 11.8L24.1463 13.22C23.9677 13.1467 23.8075 13.0349 23.6772 12.8926C23.5468 12.7502 23.4495 12.5809 23.3921 12.3965C23.3348 12.2122 23.3189 12.0175 23.3456 11.8263C23.3722 11.6352 23.4408 11.4522 23.5463 11.2906L24.6223 11.72C24.6378 11.7258 24.6506 11.7373 24.6581 11.7521C24.6657 11.7669 24.6674 11.784 24.663 11.8ZM18.679 9.34796L19.8957 9.83329C19.8289 10.003 19.7275 10.1568 19.598 10.2852C19.4685 10.4135 19.3136 10.5134 19.1433 10.5786C18.973 10.6437 18.7911 10.6727 18.609 10.6637C18.4269 10.6546 18.2486 10.6077 18.0857 10.526L18.609 9.37396L18.679 9.34796ZM13.3337 12.6666H15.6483L14.437 15.3333H13.3337C12.98 15.3333 12.6409 15.1928 12.3909 14.9428C12.1408 14.6927 12.0003 14.3536 12.0003 14C12.0003 13.6463 12.1408 13.3072 12.3909 13.0572C12.6409 12.8071 12.98 12.6666 13.3337 12.6666Z" fill="#16A831"/>
</g>
<defs>
<clipPath id="clip0_117_4279">
<rect width="40" height="40" fill="white"/>
</clipPath>
</defs>
</svg>
