<svg width="37" height="37" viewBox="0 0 37 37" fill="none" xmlns="http://www.w3.org/2000/svg">
<path d="M18.125 35.0029C17.3125 35.0029 17.3125 36.2529 18.125 36.2529C18.9375 36.2529 18.9375 35.0029 18.125 35.0029Z" fill="#16A831"/>
<path d="M33.125 13.7531C33.475 13.7531 33.75 13.4781 33.75 13.1281V11.2531H35.625C35.975 11.2531 36.25 10.9781 36.25 10.6281V5.62813C36.25 5.35313 36.0625 5.10313 35.8 5.02813L18.3 0.028125C18.1875 -0.009375 18.075 -0.009375 17.9625 0.028125L0.45 5.02813C0.1875 5.10313 0 5.35313 0 5.62813V10.6281C0 10.9781 0.275 11.2531 0.625 11.2531H2.5V13.1281C2.5 13.4781 2.775 13.7531 3.125 13.7531H3.75V27.5031H3.125C2.775 27.5031 2.5 27.7781 2.5 28.1281V32.5031H1.875C1.525 32.5031 1.25 32.7781 1.25 33.1281V35.0031H0.625C-0.1875 35.0031 -0.1875 36.2531 0.625 36.2531H15.625C16.4375 36.2531 16.4375 35.0031 15.625 35.0031H2.5V33.7531H33.75V35.0031H20.625C19.8125 35.0031 19.8125 36.2531 20.625 36.2531H35.625C36.4375 36.2531 36.4375 35.0031 35.625 35.0031H35V33.1281C35 32.7781 34.725 32.5031 34.375 32.5031H33.75V28.1281C33.75 27.7781 33.475 27.5031 33.125 27.5031H32.5V13.7531H33.125ZM32.5 12.5031H27.5V11.2531H32.5V12.5031ZM32.5 28.7531V30.0031H27.5V28.7531H32.5ZM26.875 27.5031C26.525 27.5031 26.25 27.7781 26.25 28.1281V30.0031H10V28.1281C10 27.7781 9.725 27.5031 9.375 27.5031H8.75V13.7531H9.375C9.725 13.7531 10 13.4781 10 13.1281V11.2531H26.25V13.1281C26.25 13.4781 26.525 13.7531 26.875 13.7531H27.5V27.5031H26.875ZM1.25 6.10313L18.125 1.27813L35 6.10313V10.0031H1.25V6.10313ZM8.75 11.2531V12.5031H3.75V11.2531H8.75ZM5 13.7531H7.5V27.5031H5V13.7531ZM3.75 28.7531H8.75V30.0031H3.75V28.7531ZM3.75 32.5031V31.2531H32.5V32.5031H3.75ZM31.25 27.5031H28.75V13.7531H31.25V27.5031Z" fill="#16A831"/>
<path d="M18.4873 15.1154C18.2748 14.9654 17.9873 14.9654 17.7623 15.1154C17.5998 15.2279 13.9248 17.8654 13.9248 22.0529C13.9248 24.3654 15.8123 26.2529 18.1248 26.2529C20.4373 26.2529 22.3248 24.3654 22.3248 22.0529C22.3248 17.8654 18.6498 15.2279 18.4873 15.1154ZM18.1248 25.0029C16.4998 25.0029 15.1748 23.6779 15.1748 22.0529C15.1748 19.2404 17.2623 17.1529 18.1248 16.4279C18.9873 17.1654 21.0748 19.2404 21.0748 22.0529C21.0748 23.6779 19.7498 25.0029 18.1248 25.0029Z" fill="#16A831"/>
<path d="M18.125 12.5029C13.65 12.5029 10 16.1529 10 20.6279C10.4125 31.3904 25.8375 31.3904 26.25 20.6279C26.25 16.1529 22.6 12.5029 18.125 12.5029ZM18.125 27.5029C14.3375 27.5029 11.25 24.4154 11.25 20.6279C11.575 11.5279 24.675 11.5279 25 20.6279C25 24.4154 21.9125 27.5029 18.125 27.5029Z" fill="#16A831"/>
</svg>
