<svg width="40" height="40" viewBox="0 0 40 40" fill="none" xmlns="http://www.w3.org/2000/svg">
<g clip-path="url(#clip0_117_4335)">
<path d="M29.472 28.2118C29.472 26.7151 28.2544 25.4974 26.7576 25.4974C25.2609 25.4974 24.0433 26.7151 24.0433 28.2118C24.0433 29.7085 25.2609 30.9261 26.7576 30.9261C28.2544 30.9261 29.472 29.7085 29.472 28.2118ZM26.7576 29.9355C25.8075 29.9355 25.0339 29.162 25.0339 28.2118C25.0339 27.2616 25.8075 26.488 26.7576 26.488C27.7078 26.488 28.4814 27.2616 28.4814 28.2118C28.4814 29.1628 27.7078 29.9355 26.7576 29.9355ZM33.0053 38.4278L31.1801 31.6146H31.2015C31.554 31.6146 31.8702 31.4322 32.0469 31.1267C32.2235 30.8213 32.2235 30.4564 32.0469 30.151L31.5862 29.3535L32.3077 28.9374C32.6132 28.7607 32.7956 28.4454 32.7956 28.0921C32.7956 27.7387 32.6132 27.4234 32.3077 27.2467L31.5103 26.7861L31.9263 26.0645C32.103 25.7591 32.103 25.3942 31.9263 25.0887C31.7497 24.7833 31.4343 24.6009 31.081 24.6009H30.1605V23.7679C30.1605 23.4146 29.9781 23.0992 29.6726 22.9225C29.3672 22.7459 29.0023 22.7459 28.6968 22.9225L27.8994 23.3832L27.4833 22.6625C27.3966 22.5122 27.2753 22.3917 27.1333 22.3083V14.7117C28.0009 14.526 28.6531 13.7541 28.6531 12.8328C28.6531 11.9115 28.0009 11.1388 27.1333 10.9539V6.81955C27.9629 6.60656 28.578 5.85285 28.578 4.95796C28.578 3.89797 27.7161 3.03611 26.6561 3.03611H14.7304V1.05398C14.7304 0.530593 14.3044 0.104614 13.781 0.104614H9.90343C9.38004 0.104614 8.95406 0.530593 8.95406 1.05398V3.03611H7.42186C6.36186 3.03611 5.5 3.89797 5.5 4.95796C5.5 5.90568 6.19015 6.69572 7.09494 6.85092V10.953C6.2273 11.1388 5.57512 11.9107 5.57512 12.832C5.57512 13.7533 6.2273 14.526 7.09494 14.7109V22.9622C6.2273 23.1479 5.57512 23.9198 5.57512 24.8411C5.57512 25.7624 6.2273 26.5351 7.09494 26.72V30.8221C6.19098 30.9781 5.5 31.7674 5.5 32.7151C5.5 33.7751 6.36186 34.6369 7.42186 34.6369H21.5246L20.5091 38.4262C20.4538 38.6342 20.538 38.8538 20.7188 38.9702C20.8996 39.0866 21.1349 39.0734 21.3017 38.9372L22.9313 37.6031L23.6751 39.5728C23.7477 39.766 23.9335 39.8932 24.1382 39.8932C24.1465 39.8932 24.1547 39.8932 24.163 39.8923C24.3776 39.8816 24.5609 39.7338 24.617 39.5258L26.1261 33.8923C26.3094 34.116 26.5802 34.2465 26.8774 34.2465C27.0829 34.2465 27.2753 34.1829 27.4362 34.0706L28.8983 39.5258C28.9536 39.7338 29.1377 39.8816 29.3523 39.8923C29.3606 39.8923 29.3688 39.8932 29.3771 39.8932C29.5818 39.8932 29.7676 39.766 29.8402 39.5728L30.584 37.6031L32.2136 38.9372C32.3804 39.0734 32.6157 39.0866 32.7965 38.9702C32.9764 38.8554 33.0615 38.6359 33.0053 38.4278ZM23.9937 22.9201H22.606C23.4563 21.7792 23.9607 20.3658 23.9607 18.8369C23.9607 17.308 23.4563 15.8947 22.606 14.7538H26.1426V22.3075C26.0006 22.3909 25.8793 22.5114 25.7926 22.6617L25.3319 23.4591L24.6112 23.0431C24.4189 22.9324 24.2034 22.892 23.9937 22.9201ZM11.623 14.7546C10.7727 15.8955 10.2683 17.3089 10.2683 18.8378C10.2683 20.3667 10.7727 21.78 11.623 22.9209H8.08642V14.7546H11.623ZM11.259 18.8378C11.259 15.6091 13.8858 12.9822 17.1145 12.9822C20.3432 12.9822 22.9701 15.6091 22.9701 18.8378C22.9701 22.0664 20.3432 24.6933 17.1145 24.6933C13.8858 24.6933 11.259 22.0656 11.259 18.8378ZM26.1426 6.87982V10.9109H8.08642V6.87982H26.1426ZM9.94471 1.09526H13.7397V3.03611H9.94471V1.09526ZM6.49147 4.95796C6.49147 4.44448 6.9092 4.02675 7.42268 4.02675H26.6561C27.1696 4.02675 27.5873 4.44448 27.5873 4.95796C27.5873 5.47145 27.1696 5.88917 26.6561 5.88917H7.42268C6.9092 5.88917 6.49147 5.47145 6.49147 4.95796ZM6.5666 12.8328C6.5666 12.3193 6.98432 11.9016 7.49781 11.9016H26.7312C27.2447 11.9016 27.6624 12.3193 27.6624 12.8328C27.6624 13.3463 27.2447 13.764 26.7312 13.764H21.7053C20.4901 12.6636 18.8795 11.9916 17.1145 11.9916C15.3495 11.9916 13.7389 12.6636 12.5237 13.764H7.49781C6.98432 13.764 6.5666 13.3463 6.5666 12.8328ZM6.5666 24.8419C6.5666 24.3284 6.98432 23.9107 7.49781 23.9107H12.5237C13.7389 25.0111 15.3495 25.6831 17.1145 25.6831C18.8795 25.6831 20.4901 25.0111 21.7053 23.9107H23.1467V24.8089H22.3138C21.9613 24.8089 21.6451 24.9913 21.4684 25.2968C21.3826 25.4454 21.3388 25.6088 21.3372 25.7723H7.49781C6.98432 25.7731 6.5666 25.3554 6.5666 24.8419ZM21.9299 27.0709L21.2084 27.4869C20.9029 27.6636 20.7205 27.9798 20.7205 28.3323C20.7205 28.6848 20.9029 29.001 21.2084 29.1776L22.0058 29.6383L21.5898 30.359C21.5105 30.496 21.4692 30.6446 21.461 30.7949H8.08642V26.7638H21.7524L21.9299 27.0709ZM7.42268 33.6479C6.9092 33.6479 6.49147 33.2302 6.49147 32.7167C6.49147 32.2032 6.9092 31.7855 7.42268 31.7855H22.1668C22.2048 31.7963 22.2436 31.8037 22.2832 31.8103L21.7912 33.6479H7.42268ZM24.059 37.7864L23.6148 36.6108C23.5587 36.4614 23.434 36.3483 23.2796 36.307C23.1253 36.2657 22.961 36.3012 22.838 36.4019L21.8655 37.1978L23.3061 31.8227H23.3556V32.6556C23.3556 33.0081 23.538 33.3243 23.8435 33.501C24.1489 33.6777 24.5138 33.6777 24.8193 33.501L25.2783 33.236L24.059 37.7864ZM26.8782 33.2443L26.3317 32.2982C26.2409 32.1413 26.1385 31.9638 25.8983 31.9052C25.8529 31.8945 25.8091 31.8895 25.7687 31.8895C25.5978 31.8895 25.4682 31.9721 25.3848 32.0266C25.3575 32.0439 25.3245 32.0654 25.2824 32.0893L24.3454 32.6301V31.5296C24.3454 31.3604 24.3454 31.1499 24.1671 30.9798C23.9921 30.813 23.7857 30.8229 23.6635 30.8287C23.6313 30.8304 23.5909 30.832 23.5413 30.832H22.4599L23.0064 29.8851C23.0964 29.7291 23.1987 29.5516 23.1294 29.3147C23.0609 29.0819 22.8776 28.9869 22.7678 28.93C22.7397 28.9151 22.7042 28.897 22.6621 28.873L21.7252 28.3323L22.6712 27.7858C22.8281 27.6958 23.0056 27.5926 23.0642 27.3524C23.1211 27.1171 23.0097 26.9429 22.9428 26.8389C22.9255 26.8116 22.904 26.7786 22.8801 26.7373L22.3394 25.8004H23.4382C23.6082 25.8004 23.8187 25.8004 23.9888 25.622C24.1564 25.447 24.1465 25.2406 24.1407 25.1176C24.139 25.0854 24.1374 25.0458 24.1374 24.9963V23.9148L25.0818 24.4605C25.2387 24.5513 25.417 24.6537 25.6547 24.5843C25.8875 24.5158 25.9825 24.3326 26.0394 24.2228C26.0543 24.1947 26.0724 24.1592 26.0964 24.1179L26.6371 23.1809L27.1836 24.127C27.2736 24.2838 27.3768 24.4613 27.617 24.52C27.8531 24.5769 28.0265 24.4655 28.1305 24.3986C28.1578 24.3813 28.1908 24.3598 28.2329 24.3359L29.1699 23.7951V24.8956C29.1699 25.0648 29.1699 25.2753 29.3482 25.4454C29.5232 25.6121 29.7296 25.6031 29.8526 25.5965C29.8848 25.5948 29.9252 25.5932 29.9748 25.5932H31.0562L30.5097 26.54C30.4197 26.6961 30.3174 26.8736 30.3867 27.1105C30.4552 27.3433 30.6385 27.4382 30.7483 27.4952C30.7772 27.5101 30.8119 27.5282 30.854 27.5522L31.791 28.0929L30.8449 28.6394C30.688 28.7294 30.5105 28.8326 30.4519 29.0728C30.395 29.3089 30.5064 29.4823 30.5733 29.5863C30.5906 29.6135 30.6121 29.6466 30.636 29.6878L31.1768 30.6248H30.0763C29.9063 30.624 29.6966 30.6248 29.5265 30.8031C29.3597 30.9781 29.3688 31.1845 29.3754 31.3075C29.3771 31.3397 29.3787 31.3802 29.3787 31.4297V32.5112L28.4318 31.9647C28.2758 31.8747 28.0983 31.7715 27.8614 31.8417C27.6286 31.9102 27.5337 32.0935 27.4767 32.2032C27.4618 32.2313 27.4437 32.2668 27.4197 32.3089L26.8782 33.2443ZM30.6781 36.4019C30.5551 36.3012 30.39 36.2657 30.2365 36.307C30.0821 36.3483 29.9574 36.4614 29.9013 36.6108L29.4572 37.7864L28.171 32.9867L28.1834 32.9644L28.9049 33.3805C29.2103 33.5571 29.5752 33.5563 29.8807 33.3805C30.1861 33.2038 30.3686 32.8884 30.3686 32.5351V32.4129L31.6506 37.1978L30.6781 36.4019ZM14.2763 20.7134C14.6701 21.9674 15.7846 22.7772 17.1137 22.7772C18.4436 22.7772 19.5573 21.9674 19.9535 20.7068C20.1302 20.114 20.1211 19.5576 19.9271 19.0549C19.923 19.0433 19.9181 19.0318 19.9123 19.0202C19.5771 18.316 19.1627 17.7365 18.7623 17.1759C18.314 16.5494 17.8905 15.9566 17.5702 15.2004C17.4926 15.0172 17.3126 14.8983 17.1145 14.8983C16.9164 14.8983 16.7364 15.0172 16.6588 15.2004C16.3385 15.9566 15.915 16.5485 15.4667 17.1759C15.0655 17.7365 14.6511 18.316 14.3168 19.0202C14.311 19.0318 14.3069 19.0433 14.3019 19.0549C14.1079 19.5585 14.0988 20.114 14.2755 20.7068C14.2755 20.7084 14.2755 20.7109 14.2763 20.7134ZM15.2191 19.4272C15.5146 18.8105 15.8828 18.2954 16.2725 17.7514C16.5573 17.3526 16.8487 16.9456 17.1145 16.4899C17.3812 16.9456 17.6718 17.3526 17.9566 17.7514C18.3462 18.2962 18.7136 18.8105 19.01 19.4272C19.1189 19.7211 19.1173 20.0472 19.0075 20.4162C18.6896 21.4267 17.8212 21.7866 17.1145 21.7866C16.4087 21.7866 15.541 21.4275 15.2232 20.4195C15.1118 20.0447 15.1101 19.7203 15.2191 19.4272Z" fill="#16A831"/>
</g>
<defs>
<clipPath id="clip0_117_4335">
<rect width="40" height="40" fill="white"/>
</clipPath>
</defs>
</svg>
