<svg width="40" height="40" viewBox="0 0 40 40" fill="none" xmlns="http://www.w3.org/2000/svg">
<path d="M38.75 35.625V12.5C38.75 12.3764 38.7133 12.2556 38.6446 12.1529C38.5759 12.0501 38.4783 11.97 38.3642 11.9227C38.25 11.8754 38.1243 11.8631 38.0031 11.8872C37.8819 11.9113 37.7705 11.9708 37.6831 12.0582L31.25 18.4919V13.75C31.25 13.5843 31.1842 13.4253 31.0669 13.3081C30.9497 13.1909 30.7908 13.125 30.625 13.125H29.375V10.625C29.375 10.4593 29.3092 10.3003 29.1919 10.1831C29.0747 10.0659 28.9158 10 28.75 10H27.5V7.50003C27.5 7.33427 27.4342 7.1753 27.3169 7.05809C27.1997 6.94088 27.0408 6.87503 26.875 6.87503H26.8431C26.6897 5.16585 25.9024 3.57592 24.6359 2.41798C23.3694 1.26004 21.7154 0.61792 19.9994 0.61792C18.2833 0.61792 16.6294 1.26004 15.3629 2.41798C14.0964 3.57592 13.309 5.16585 13.1556 6.87503H13.125C12.9592 6.87503 12.8003 6.94088 12.6831 7.05809C12.5658 7.1753 12.5 7.33427 12.5 7.50003V10H11.25C11.0842 10 10.9253 10.0659 10.8081 10.1831C10.6908 10.3003 10.625 10.4593 10.625 10.625V13.125H9.375C9.20924 13.125 9.05027 13.1909 8.93306 13.3081C8.81585 13.4253 8.75 13.5843 8.75 13.75V18.4919L2.31687 12.0582C2.22947 11.9708 2.11812 11.9113 1.99689 11.8872C1.87567 11.8631 1.75003 11.8754 1.63584 11.9227C1.52165 11.97 1.42405 12.0501 1.35537 12.1529C1.2867 12.2556 1.25003 12.3764 1.25 12.5V35.625C1.08424 35.625 0.925268 35.6909 0.808058 35.8081C0.690848 35.9253 0.625 36.0843 0.625 36.25V38.75C0.625 38.9158 0.690848 39.0748 0.808058 39.192C0.925268 39.3092 1.08424 39.375 1.25 39.375H38.75C38.9158 39.375 39.0747 39.3092 39.1919 39.192C39.3092 39.0748 39.375 38.9158 39.375 38.75V36.25C39.375 36.0843 39.3092 35.9253 39.1919 35.8081C39.0747 35.6909 38.9158 35.625 38.75 35.625ZM37.5 14.0094V35.625H31.25V20.26L37.5 14.0094ZM20 1.87503C21.3828 1.87705 22.7166 2.38775 23.7472 3.30983C24.7777 4.23192 25.433 5.50092 25.5881 6.87503H14.4119C14.567 5.50092 15.2223 4.23192 16.2528 3.30983C17.2834 2.38775 18.6172 1.87705 20 1.87503ZM13.75 8.12503H26.25V10H13.75V8.12503ZM11.875 11.25H28.125V13.125H11.875V11.25ZM30 14.375V35.625H10V14.375H30ZM2.5 14.0094L8.75 20.2594V35.625H2.5V14.0094ZM38.125 38.125H1.875V36.875H38.125V38.125Z" fill="#16A831"/>
<path d="M15 29.375H25C25.1658 29.375 25.3247 29.3092 25.4419 29.1919C25.5592 29.0747 25.625 28.9158 25.625 28.75V21.25C25.625 19.7582 25.0324 18.3274 23.9775 17.2725C22.9226 16.2176 21.4918 15.625 20 15.625C18.5082 15.625 17.0774 16.2176 16.0225 17.2725C14.9676 18.3274 14.375 19.7582 14.375 21.25V28.75C14.375 28.9158 14.4408 29.0747 14.5581 29.1919C14.6753 29.3092 14.8342 29.375 15 29.375ZM18.125 17.3031C18.5202 17.1147 18.9416 16.9872 19.375 16.925V28.125H18.125V17.3031ZM21.875 28.125H20.625V16.925C21.0584 16.9872 21.4798 17.1147 21.875 17.3031V28.125ZM24.375 21.25V28.125H23.125V18.1938C23.9262 19.0092 24.3751 20.1068 24.375 21.25ZM15.625 21.25C15.6249 20.1068 16.0738 19.0092 16.875 18.1938V28.125H15.625V21.25Z" fill="#16A831"/>
<path d="M21.875 30.625H18.125C17.9592 30.625 17.8003 30.6908 17.6831 30.8081C17.5658 30.9253 17.5 31.0842 17.5 31.25V33.75C17.5 33.9158 17.5658 34.0747 17.6831 34.1919C17.8003 34.3092 17.9592 34.375 18.125 34.375H21.875C22.0408 34.375 22.1997 34.3092 22.3169 34.1919C22.4342 34.0747 22.5 33.9158 22.5 33.75V31.25C22.5 31.0842 22.4342 30.9253 22.3169 30.8081C22.1997 30.6908 22.0408 30.625 21.875 30.625ZM21.25 33.125H18.75V31.875H21.25V33.125Z" fill="#16A831"/>
<path d="M5.625 19.375C5.12772 19.375 4.65081 19.5725 4.29917 19.9242C3.94754 20.2758 3.75 20.7527 3.75 21.25V33.75C3.75 33.9158 3.81585 34.0747 3.93306 34.1919C4.05027 34.3092 4.20924 34.375 4.375 34.375H6.875C7.04076 34.375 7.19973 34.3092 7.31694 34.1919C7.43415 34.0747 7.5 33.9158 7.5 33.75V21.25C7.5 20.7527 7.30246 20.2758 6.95083 19.9242C6.59919 19.5725 6.12228 19.375 5.625 19.375ZM6.25 33.125H5V21.25C5 21.0842 5.06585 20.9253 5.18306 20.8081C5.30027 20.6908 5.45924 20.625 5.625 20.625C5.79076 20.625 5.94973 20.6908 6.06694 20.8081C6.18415 20.9253 6.25 21.0842 6.25 21.25V33.125Z" fill="#16A831"/>
<path d="M33.125 34.375H35.625C35.7908 34.375 35.9497 34.3092 36.0669 34.1919C36.1842 34.0747 36.25 33.9158 36.25 33.75V21.25C36.25 20.7527 36.0525 20.2758 35.7008 19.9242C35.3492 19.5725 34.8723 19.375 34.375 19.375C33.8777 19.375 33.4008 19.5725 33.0492 19.9242C32.6975 20.2758 32.5 20.7527 32.5 21.25V33.75C32.5 33.9158 32.5658 34.0747 32.6831 34.1919C32.8003 34.3092 32.9592 34.375 33.125 34.375ZM33.75 21.25C33.75 21.0842 33.8158 20.9253 33.9331 20.8081C34.0503 20.6908 34.2092 20.625 34.375 20.625C34.5408 20.625 34.6997 20.6908 34.8169 20.8081C34.9342 20.9253 35 21.0842 35 21.25V33.125H33.75V21.25Z" fill="#16A831"/>
</svg>
