<svg width="48" height="48" viewBox="0 0 48 48" fill="none" xmlns="http://www.w3.org/2000/svg">
<path opacity="0.4" d="M35.9963 14.32C35.8763 14.3 35.7362 14.3 35.6162 14.32C32.8562 14.22 30.6562 11.96 30.6562 9.16C30.6562 6.3 32.9562 4 35.8162 4C38.6762 4 40.9762 6.32 40.9762 9.16C40.9562 11.96 38.7563 14.22 35.9963 14.32Z" stroke="#16A831" stroke-width="3" stroke-linecap="round" stroke-linejoin="round"/>
<path opacity="0.4" d="M33.935 28.8804C36.675 29.3404 39.695 28.8604 41.815 27.4404C44.635 25.5604 44.635 22.4804 41.815 20.6004C39.675 19.1803 36.615 18.7003 33.875 19.1803" stroke="#16A831" stroke-width="3" stroke-linecap="round" stroke-linejoin="round"/>
<path opacity="0.4" d="M11.9331 14.32C12.0531 14.3 12.1931 14.3 12.3131 14.32C15.0731 14.22 17.2731 11.96 17.2731 9.16C17.2731 6.3 14.9731 4 12.1131 4C9.25312 4 6.95312 6.32 6.95312 9.16C6.97312 11.96 9.17312 14.22 11.9331 14.32Z" stroke="#16A831" stroke-width="3" stroke-linecap="round" stroke-linejoin="round"/>
<path opacity="0.4" d="M13.995 28.8804C11.255 29.3404 8.235 28.8604 6.115 27.4404C3.295 25.5604 3.295 22.4804 6.115 20.6004C8.255 19.1803 11.315 18.7003 14.055 19.1803" stroke="#16A831" stroke-width="3" stroke-linecap="round" stroke-linejoin="round"/>
<path d="M24.0002 29.2604C23.8802 29.2404 23.7402 29.2404 23.6202 29.2604C20.8602 29.1604 18.6602 26.9004 18.6602 24.1004C18.6602 21.2404 20.9602 18.9404 23.8202 18.9404C26.6802 18.9404 28.9802 21.2604 28.9802 24.1004C28.9602 26.9004 26.7602 29.1804 24.0002 29.2604Z" stroke="#16A831" stroke-width="3" stroke-linecap="round" stroke-linejoin="round"/>
<path d="M18.1814 35.5607C15.3614 37.4407 15.3614 40.5205 18.1814 42.4005C21.3814 44.5405 26.6214 44.5405 29.8214 42.4005C32.6414 40.5205 32.6414 37.4407 29.8214 35.5607C26.6414 33.4407 21.3814 33.4407 18.1814 35.5607Z" stroke="#16A831" stroke-width="3" stroke-linecap="round" stroke-linejoin="round"/>
</svg>
