<svg width="48" height="48" viewBox="0 0 48 48" fill="none" xmlns="http://www.w3.org/2000/svg">
<path d="M38.3234 9.6525C38.2859 9.57 38.2334 9.48 38.1584 9.4125L30.4709 1.7175C30.4484 1.695 30.4259 1.6725 30.3959 1.6575C30.3734 1.635 30.3434 1.62 30.3209 1.6125C30.2609 1.5675 30.1934 1.5375 30.1184 1.5225C30.0659 1.5075 29.9984 1.5 29.9384 1.5H5.96094C5.54844 1.5 5.21094 1.8375 5.21094 2.25V41.3475C5.21094 41.76 5.54844 42.0975 5.96094 42.0975H23.5859C25.5059 44.76 28.6409 46.5 32.1809 46.5C38.0309 46.5 42.7859 41.745 42.7859 35.895C42.7859 32.37 41.0534 29.235 38.3834 27.3075V9.9375C38.3834 9.84 38.3609 9.7425 38.3234 9.6525ZM37.1984 33.6975L31.7309 39.1575C31.5884 39.3 31.4009 39.375 31.2059 39.375C31.0034 39.375 30.8159 39.3 30.6734 39.1575L27.1634 35.6475C26.8709 35.355 26.8709 34.8825 27.1634 34.59C27.4559 34.2975 27.9359 34.2975 28.2284 34.59L31.2059 37.5675L36.1334 32.6325C36.4259 32.34 36.9059 32.34 37.1984 32.6325C37.4909 32.925 37.4909 33.405 37.1984 33.6975ZM32.1809 25.29C26.3309 25.29 21.5759 30.0525 21.5759 35.895C21.5759 37.5825 21.9734 39.18 22.6784 40.5975H6.71094V3H29.1884V9.9375C29.1884 10.3575 29.5259 10.6875 29.9384 10.6875H36.8834V26.4C35.4659 25.6875 33.8684 25.29 32.1809 25.29Z" fill="#16A831"/>
<path d="M31.5355 13.7078H12.0625C11.6478 13.7078 11.3125 14.0438 11.3125 14.4578C11.3125 14.8718 11.6478 15.2078 12.0625 15.2078H31.5355C31.9502 15.2078 32.2855 14.8718 32.2855 14.4578C32.2855 14.0438 31.9502 13.7078 31.5355 13.7078Z" fill="#16A831"/>
<path d="M31.5355 19.5H12.0625C11.6478 19.5 11.3125 19.836 11.3125 20.25C11.3125 20.664 11.6478 21 12.0625 21H31.5355C31.9502 21 32.2855 20.664 32.2855 20.25C32.2855 19.836 31.9502 19.5 31.5355 19.5Z" fill="#16A831"/>
<path d="M23.9215 25.2922H12.0625C11.6478 25.2922 11.3125 25.6282 11.3125 26.0422C11.3125 26.4562 11.6478 26.7922 12.0625 26.7922H23.9215C24.3363 26.7922 24.6715 26.4562 24.6715 26.0422C24.6715 25.6282 24.3363 25.2922 23.9215 25.2922Z" fill="#16A831"/>
<path d="M20.0763 31.0837H12.0625C11.6478 31.0837 11.3125 31.4197 11.3125 31.8337C11.3125 32.2477 11.6478 32.5837 12.0625 32.5837H20.0763C20.491 32.5837 20.8263 32.2477 20.8263 31.8337C20.8263 31.4197 20.491 31.0837 20.0763 31.0837Z" fill="#16A831"/>
</svg>
