<svg width="48" height="48" viewBox="0 0 48 48" fill="none" xmlns="http://www.w3.org/2000/svg">
<path d="M26.9077 24.3635C26.9077 25.9681 25.6048 27.2778 24.0002 27.2778C22.3957 27.2778 21.0859 25.9681 21.0859 24.3635C21.0859 22.7589 22.3957 21.4561 24.0002 21.4561C25.6048 21.4561 26.9077 22.7589 26.9077 24.3635Z" fill="#16A831"/>
<path d="M45.9017 26.5715C46.1828 26.5715 46.416 26.3384 46.416 26.0573V22.2995C46.416 22.0184 46.1828 21.7853 45.9017 21.7853H31.1863L30.6034 21.3807V14.5235C30.6034 11.047 27.9154 8.1944 24.5143 7.93383V5.7944H29.2526C29.5337 5.7944 29.7668 5.56811 29.7668 5.28011V2.05725C29.7668 1.77611 29.5337 1.54297 29.2526 1.54297H24C23.856 1.54297 23.7257 1.60468 23.6366 1.69383C23.5406 1.78983 23.4857 1.92011 23.4857 2.05725V7.93383C20.0777 8.1944 17.3897 11.047 17.3897 14.5235V21.3807L16.8137 21.7853H2.09827C1.81027 21.7853 1.58398 22.0184 1.58398 22.2995V26.0573C1.58398 26.3384 1.81027 26.5715 2.09827 26.5715H3.63427V45.4287H2.09827C1.81027 45.4287 1.58398 45.6618 1.58398 45.943C1.58398 46.231 1.81027 46.4573 2.09827 46.4573H45.9017C46.1828 46.4573 46.416 46.231 46.416 45.943C46.416 45.6618 46.1828 45.4287 45.9017 45.4287H44.3588V26.5715H45.9017ZM23.9931 8.94183H24C25.4537 8.94183 26.7703 9.49725 27.7646 10.4093C28.7588 11.3213 29.424 12.5898 29.5543 14.0093H18.4388C18.6994 11.1704 21.0926 8.94183 23.9931 8.94183ZM29.5748 15.0378V20.6675L27.1748 18.9944V15.0378H29.5748ZM18.4183 15.0378H20.8183V18.9944L18.4183 20.6675V15.0378ZM9.79884 26.6675L9.79198 26.6744L8.30398 27.7098C8.07084 27.8744 8.01599 28.1898 8.1737 28.423C8.33827 28.6561 8.66056 28.7178 8.8937 28.5533L9.57941 28.0733V45.4287H4.66284V26.5715H9.93598L9.79884 26.6675ZM18.0206 45.4287H14.928V30.6995H18.0206V45.4287ZM33.0651 45.4287H29.9726V30.6995H33.0651V45.4287ZM37.3851 45.4287H34.0937V30.1853C34.0937 29.9041 33.8606 29.671 33.5794 29.671H29.4583C29.1771 29.671 28.944 29.9041 28.944 30.1853V45.4287H26.5714V30.1853C26.5714 29.9041 26.3383 29.671 26.0571 29.671H21.936C21.6548 29.671 21.4217 29.9041 21.4217 30.1853V45.4287H19.0491V30.1853C19.0491 29.9041 18.816 29.671 18.5348 29.671H14.4137C14.1326 29.671 13.8994 29.9041 13.8994 30.1853V45.4287H10.608V27.3601C12.8777 25.783 23.9246 18.0893 24 18.0344C24.0686 18.0824 36.5691 26.7841 37.3851 27.3533V45.4287ZM43.3303 45.4287L38.4137 45.559V28.2035L39.1063 28.5533C39.1954 28.615 39.2983 28.6424 39.3943 28.6424C39.5588 28.6424 39.7166 28.567 39.8194 28.423C39.984 28.1898 39.9223 27.8744 39.6891 27.7098L38.2011 26.6744L38.1943 26.6675L38.0571 26.5715H43.3303V45.4287Z" fill="#16A831"/>
</svg>
