<svg width="49" height="50" viewBox="0 0 49 50" fill="none" xmlns="http://www.w3.org/2000/svg">
<g clip-path="url(#clip0_565_1466)">
<path d="M16.8207 49.9978C16.0449 49.9978 15.2691 49.8436 14.5422 49.5373C13.0232 48.8957 11.8207 47.6269 11.245 46.0561L9.69328 41.8394C9.39928 41.0394 8.7827 40.4103 8.00074 40.1103L3.86637 38.5269C2.32899 37.9394 1.08562 36.7123 0.456783 35.1623C-0.17205 33.6123 -0.143467 31.8478 0.53845 30.3207L2.36574 26.2207C2.71078 25.4436 2.71078 24.554 2.36574 23.7769L0.536408 19.6769C-0.143467 18.1519 -0.174092 16.3853 0.454742 14.8373C1.08358 13.2894 2.32899 12.0603 3.86841 11.4728L8.00074 9.88943C8.78474 9.58943 9.40133 8.96026 9.69533 8.16235L11.247 3.9436C11.8227 2.37485 13.0253 1.1061 14.5443 0.464431C16.0653 -0.177236 17.7905 -0.145986 19.2891 0.547764L23.3071 2.41235C24.0666 2.76235 24.9384 2.76443 25.702 2.41235L29.722 0.547764C31.2165 -0.145986 32.9479 -0.175153 34.4648 0.464431C35.9838 1.1061 37.1864 2.37485 37.7621 3.94568L39.3138 8.16235C39.6078 8.96235 40.2244 9.59151 41.0063 9.89151L45.1407 11.4748C46.6781 12.0623 47.9215 13.2894 48.5503 14.8394C49.1791 16.3894 49.1505 18.154 48.4686 19.6811L46.6413 23.7811C46.2963 24.5582 46.2963 25.4478 46.6413 26.2248L48.4666 30.3269C49.1465 31.8519 49.1771 33.6186 48.5482 35.1665C47.9194 36.7144 46.676 37.9436 45.1366 38.5311L41.0043 40.1144C40.2203 40.4144 39.6037 41.0436 39.3097 41.8415L37.758 46.0603C37.1823 47.629 35.9797 48.8978 34.4607 49.5394C32.9417 50.1811 31.2145 50.1519 29.7159 49.4561L25.6979 47.5915C24.9364 47.2394 24.0646 47.2394 23.303 47.5915L19.283 49.454C18.5051 49.8165 17.6619 49.9978 16.8207 49.9978ZM16.8228 3.12485C16.4471 3.12485 16.0735 3.19985 15.7142 3.35193C14.9649 3.66651 14.3952 4.2686 14.1115 5.04151L12.5598 9.26026C11.9555 10.9019 10.6855 12.1978 9.07466 12.8144L4.94233 14.3978C4.18487 14.6873 3.59483 15.2686 3.28449 16.0332C2.9762 16.7957 2.98845 17.6311 3.32328 18.3832L5.15058 22.4853C5.86312 24.0832 5.86312 25.9144 5.15058 27.5123L3.32328 31.6144C2.98845 32.3665 2.97416 33.204 3.28449 33.9665C3.59483 34.7311 4.18283 35.3123 4.94233 35.6019L9.0767 37.1853C10.6876 37.8019 11.9575 39.0978 12.5618 40.7415L14.1135 44.9582C14.3973 45.7332 14.9669 46.3332 15.7162 46.6498C16.4635 46.9665 17.2842 46.954 18.0192 46.6103L22.0392 44.7457C23.6052 44.0186 25.3998 44.0207 26.9658 44.7457L30.9858 46.6103C31.727 46.954 32.5436 46.9665 33.2909 46.6498C34.0402 46.3332 34.6098 45.7332 34.8936 44.9582L36.4452 40.7394C37.0496 39.0957 38.3195 37.7998 39.9304 37.1832L44.0627 35.5998C44.8222 35.3103 45.4102 34.729 45.7205 33.9644C46.0309 33.2019 46.0166 32.3644 45.6817 31.6144L43.8545 27.5123C43.1419 25.9144 43.1419 24.0832 43.8545 22.4853L45.6817 18.3832C46.0166 17.6311 46.0309 16.7936 45.7205 16.0311C45.4102 15.2665 44.8222 14.6853 44.0627 14.3957L39.9283 12.8123C38.3175 12.1957 37.0475 10.8998 36.4432 9.2561L34.8915 5.03943C34.6077 4.26443 34.0381 3.66443 33.2888 3.34776C32.5416 3.0311 31.7229 3.0436 30.9858 3.38735L26.9658 5.25193C25.3998 5.97693 23.6052 5.97693 22.0392 5.25193L18.0192 3.38943C17.6333 3.21235 17.2291 3.12485 16.8228 3.12485Z" fill="#16A831"/>
<path d="M28.0723 31.2498H20.9264C18.9562 31.2498 17.3535 29.6144 17.3535 27.604V20.3123C17.3535 18.3019 18.9562 16.6665 20.9264 16.6665H28.0723C30.0425 16.6665 31.6452 18.3019 31.6452 20.3123V27.604C31.6452 29.6144 30.0425 31.2498 28.0723 31.2498ZM20.9264 19.7915C20.6447 19.7915 20.416 20.0248 20.416 20.3123V27.604C20.416 27.8915 20.6447 28.1248 20.9264 28.1248H28.0723C28.354 28.1248 28.5827 27.8915 28.5827 27.604V20.3123C28.5827 20.0248 28.354 19.7915 28.0723 19.7915H20.9264Z" fill="#16A831"/>
<path d="M34.1986 22.9165H30.1152C29.27 22.9165 28.584 22.2165 28.584 21.354C28.584 20.4915 29.27 19.7915 30.1152 19.7915H34.1986C35.0438 19.7915 35.7298 20.4915 35.7298 21.354C35.7298 22.2165 35.0438 22.9165 34.1986 22.9165Z" fill="#16A831"/>
<path d="M34.1986 28.125H30.1152C29.27 28.125 28.584 27.425 28.584 26.5625C28.584 25.7 29.27 25 30.1152 25H34.1986C35.0438 25 35.7298 25.7 35.7298 26.5625C35.7298 27.425 35.0438 28.125 34.1986 28.125Z" fill="#16A831"/>
<path d="M18.8861 22.9165H14.8027C13.9575 22.9165 13.2715 22.2165 13.2715 21.354C13.2715 20.4915 13.9575 19.7915 14.8027 19.7915H18.8861C19.7313 19.7915 20.4173 20.4915 20.4173 21.354C20.4173 22.2165 19.7313 22.9165 18.8861 22.9165Z" fill="#16A831"/>
<path d="M18.8861 28.125H14.8027C13.9575 28.125 13.2715 27.425 13.2715 26.5625C13.2715 25.7 13.9575 25 14.8027 25H18.8861C19.7313 25 20.4173 25.7 20.4173 26.5625C20.4173 27.425 19.7313 28.125 18.8861 28.125Z" fill="#16A831"/>
<path d="M27.0527 35.4167C26.2075 35.4167 25.5215 34.7167 25.5215 33.8542V29.6875C25.5215 28.825 26.2075 28.125 27.0527 28.125C27.898 28.125 28.584 28.825 28.584 29.6875V33.8542C28.584 34.7167 27.898 35.4167 27.0527 35.4167Z" fill="#16A831"/>
<path d="M21.4375 35.4167C20.5922 35.4167 19.9062 34.7167 19.9062 33.8542V29.6875C19.9062 28.825 20.5922 28.125 21.4375 28.125C22.2828 28.125 22.9688 28.825 22.9688 29.6875V33.8542C22.9688 34.7167 22.2828 35.4167 21.4375 35.4167Z" fill="#16A831"/>
<path d="M27.0527 19.7917C26.2075 19.7917 25.5215 19.0917 25.5215 18.2292V14.0625C25.5215 13.2 26.2075 12.5 27.0527 12.5C27.898 12.5 28.584 13.2 28.584 14.0625V18.2292C28.584 19.0917 27.898 19.7917 27.0527 19.7917Z" fill="#16A831"/>
<path d="M21.9473 19.7917C21.102 19.7917 20.416 19.0917 20.416 18.2292V14.0625C20.416 13.2 21.102 12.5 21.9473 12.5C22.7925 12.5 23.4785 13.2 23.4785 14.0625V18.2292C23.4785 19.0917 22.7925 19.7917 21.9473 19.7917Z" fill="#16A831"/>
</g>
<defs>
<clipPath id="clip0_565_1466">
<rect width="49" height="50" fill="white"/>
</clipPath>
</defs>
</svg>
