<svg width="48" height="48" viewBox="0 0 48 48" fill="none" xmlns="http://www.w3.org/2000/svg">
<path d="M7.575 20.25C7.92 21.96 9.435 23.25 11.25 23.25C13.065 23.25 14.58 21.96 14.925 20.25H28.5C28.5 21.0825 27.825 21.75 27 21.75H17.25C16.8375 21.75 16.5 22.0875 16.5 22.5V30C16.5 30.4125 16.8375 30.75 17.25 30.75C17.6625 30.75 18 30.4125 18 30V23.25H27C28.6575 23.25 30 21.9075 30 20.25V19.5C30 19.0875 29.6625 18.75 29.25 18.75H14.25C13.8375 18.75 13.5 18.4125 13.5 18V17.3925C14.8425 16.6125 15.75 15.165 15.75 13.5V13.095C16.02 12.75 16.5 11.9775 16.5 10.7475C16.5 8.13 14.3025 6 11.595 6H10.905C8.1975 6 6 8.13 6 10.7475C6 11.97 6.48 12.75 6.75 13.095V13.5C6.75 15.165 7.6575 16.6125 9 17.3925V18C9 18.4125 8.6625 18.75 8.25 18.75H5.25C3.18 18.75 1.5 20.4375 1.5 22.5V30C1.5 30.4125 1.8375 30.75 2.25 30.75C2.6625 30.75 3 30.4125 3 30V22.5C3 21.2625 4.005 20.25 5.25 20.25H7.575ZM11.25 21.75C10.215 21.75 9.345 21.0375 9.0825 20.085C9.9075 19.755 10.5 18.945 10.5 18V17.9325C10.7475 17.9775 10.995 18 11.25 18C11.505 18 11.7525 17.97 12 17.9325V18C12 18.945 12.585 19.755 13.4175 20.085C13.1625 21.045 12.2925 21.75 11.25 21.75ZM7.725 11.835C7.6125 11.5875 7.5 11.2275 7.5 10.7475C7.5 8.955 9.03 7.5 10.905 7.5H11.595C13.47 7.5 15 8.955 15 10.7475C15 11.3475 14.8275 11.76 14.6925 11.9925C11.8125 11.865 10.0575 10.2225 10.0425 10.2075C9.9075 10.0725 9.7275 10.0125 9.54 10.0125C9.4425 10.0125 9.345 10.0275 9.255 10.065C8.985 10.17 8.7975 10.4325 8.775 10.725C8.775 10.755 8.715 11.3625 7.7325 11.835H7.725ZM8.25 13.5V13.2375C9.075 12.87 9.57 12.39 9.855 11.9475C10.725 12.525 12.2325 13.29 14.25 13.4625V13.5C14.25 15.1575 12.9075 16.5 11.25 16.5C9.5925 16.5 8.25 15.1575 8.25 13.5Z" fill="#16A831"/>
<path d="M45 1.5H27.75C27.3375 1.5 27 1.8375 27 2.25C27 2.6625 27.3375 3 27.75 3H45V4.5H19.5V3H24.75C25.1625 3 25.5 2.6625 25.5 2.25C25.5 1.8375 25.1625 1.5 24.75 1.5H19.5C18.675 1.5 18 2.175 18 3V4.5C18 5.325 18.675 6 19.5 6H45C45.825 6 46.5 5.325 46.5 4.5V3C46.5 2.175 45.825 1.5 45 1.5Z" fill="#16A831"/>
<path d="M21.75 16.5V8.25C21.75 7.8375 21.4125 7.5 21 7.5C20.5875 7.5 20.25 7.8375 20.25 8.25V16.5C20.25 16.9125 20.5875 17.25 21 17.25C21.4125 17.25 21.75 16.9125 21.75 16.5Z" fill="#16A831"/>
<path d="M43.5 7.5C43.0875 7.5 42.75 7.8375 42.75 8.25V24.75H21C20.5875 24.75 20.25 25.0875 20.25 25.5C20.25 25.9125 20.5875 26.25 21 26.25H31.5V28.635C30.63 28.9425 30 29.7675 30 30.75C30 31.9875 31.0125 33 32.25 33C33.4875 33 34.5 31.9875 34.5 30.75C34.5 29.775 33.87 28.95 33 28.635V26.25H43.5C43.9125 26.25 44.25 25.9125 44.25 25.5V8.25C44.25 7.8375 43.9125 7.5 43.5 7.5ZM32.25 31.5C31.8375 31.5 31.5 31.1625 31.5 30.75C31.5 30.3375 31.8375 30 32.25 30C32.6625 30 33 30.3375 33 30.75C33 31.1625 32.6625 31.5 32.25 31.5Z" fill="#16A831"/>
<path d="M39.75 9.75C40.1625 9.75 40.5 9.4125 40.5 9C40.5 8.5875 40.1625 8.25 39.75 8.25H27.75C27.3375 8.25 27 8.5875 27 9C27 9.4125 27.3375 9.75 27.75 9.75H39.75Z" fill="#16A831"/>
<path d="M24 12.75C24 13.1625 24.3375 13.5 24.75 13.5H39.75C40.1625 13.5 40.5 13.1625 40.5 12.75C40.5 12.3375 40.1625 12 39.75 12H24.75C24.3375 12 24 12.3375 24 12.75Z" fill="#16A831"/>
<path d="M24.75 17.25H34.5C34.9125 17.25 35.25 16.9125 35.25 16.5C35.25 16.0875 34.9125 15.75 34.5 15.75H24.75C24.3375 15.75 24 16.0875 24 16.5C24 16.9125 24.3375 17.25 24.75 17.25Z" fill="#16A831"/>
<path d="M4.5 24.75V30C4.5 30.4125 4.8375 30.75 5.25 30.75C5.6625 30.75 6 30.4125 6 30V24.75C6 24.3375 5.6625 24 5.25 24C4.8375 24 4.5 24.3375 4.5 24.75Z" fill="#16A831"/>
<path d="M27.7108 37.8825C28.6483 37.0575 29.2483 35.85 29.2483 34.5V33.75C29.2483 31.2675 27.2308 29.25 24.7483 29.25C22.2658 29.25 20.2483 31.2675 20.2483 33.75V34.5C20.2483 35.85 20.8483 37.0575 21.7858 37.8825C20.8933 38.19 20.0608 38.685 19.3558 39.3525C19.0558 39.6375 19.0408 40.11 19.3258 40.41C19.6108 40.71 20.0833 40.725 20.3833 40.44C21.3658 39.51 22.6483 39 23.9908 39H25.4908C28.3858 39 30.7408 41.355 30.7408 44.25C30.7408 44.4525 30.6658 44.6325 30.5083 44.7825C30.3733 44.9175 30.1858 45 29.9908 45H20.7283C20.3158 45 19.9783 45.3375 19.9783 45.75C19.9783 46.1625 20.3158 46.5 20.7283 46.5H29.9908C30.5983 46.5 31.1683 46.26 31.5733 45.8475C32.0083 45.4275 32.2408 44.8575 32.2408 44.25C32.2408 41.3025 30.3433 38.7975 27.7033 37.8825H27.7108ZM24.7483 37.5C23.0908 37.5 21.7483 36.1575 21.7483 34.5V33.75C21.7483 32.0925 23.0908 30.75 24.7483 30.75C26.4058 30.75 27.7483 32.0925 27.7483 33.75V34.5C27.7483 36.1575 26.4058 37.5 24.7483 37.5Z" fill="#16A831"/>
<path d="M14.2125 37.8825C15.15 37.0575 15.75 35.85 15.75 34.5V33.75C15.75 31.2675 13.7325 29.25 11.25 29.25C8.7675 29.25 6.75 31.2675 6.75 33.75V34.5C6.75 35.85 7.35 37.05 8.2875 37.875C7.335 38.205 6.4575 38.7375 5.7225 39.4725C4.4475 40.755 3.75 42.45 3.75 44.2425C3.75 45.48 4.7625 46.4925 6 46.4925H9C9.4125 46.4925 9.75 46.155 9.75 45.7425C9.75 45.33 9.4125 44.9925 9 44.9925H6C5.5875 44.9925 5.25 44.655 5.25 44.2425C5.25 42.8475 5.7975 41.5275 6.78 40.53C7.7775 39.54 9.0975 38.9925 10.5 38.9925H12C14.895 38.9925 17.25 41.3475 17.25 44.2425C17.25 44.445 17.175 44.625 17.0175 44.775C16.8825 44.91 16.695 44.9925 16.5 44.9925H12C11.5875 44.9925 11.25 45.33 11.25 45.7425C11.25 46.155 11.5875 46.4925 12 46.4925H16.5C17.1075 46.4925 17.6775 46.2525 18.0825 45.84C18.5175 45.42 18.75 44.85 18.75 44.2425C18.75 41.295 16.8525 38.79 14.2125 37.875V37.8825ZM11.25 37.5C9.5925 37.5 8.25 36.1575 8.25 34.5V33.75C8.25 32.0925 9.5925 30.75 11.25 30.75C12.9075 30.75 14.25 32.0925 14.25 33.75V34.5C14.25 36.1575 12.9075 37.5 11.25 37.5Z" fill="#16A831"/>
</svg>
